<svg width="20" height="22" viewBox="0 0 24 24" fill="none" xmlns="http://www.w3.org/2000/svg"> <path d="M15.5 10C15.5 10 15.7332 12.9028 16.9152 14.0848C18.0972 15.2668 21 15.5 21 15.5C21 15.5 18.0972 15.7332 16.9152 16.9152C15.7332 18.0972 15.5 21 15.5 21C15.5 21 15.2668 18.0972 14.0848 16.9152C12.9028 15.7332 10 15.5 10 15.5C10 15.5 12.9028 15.2668 14.0848 14.0848C15.2668 12.9028 15.5 10 15.5 10Z" stroke="black" stroke-width="2" stroke-linecap="round" stroke-linejoin="round"/> <path d="M6.5 5C6.5 5 6.64838 6.84721 7.40059 7.59942C8.15279 8.35162 10 8.5 10 8.5C10 8.5 8.15279 8.64838 7.40059 9.40059C6.64838 10.1528 6.5 12 6.5 12C6.5 12 6.35162 10.1528 5.59942 9.40059C4.84721 8.64838 3 8.5 3 8.5C3 8.5 4.84721 8.35162 5.59942 7.59942C6.35162 6.84721 6.5 5 6.5 5Z" stroke="black" stroke-width="2" stroke-linecap="round" stroke-linejoin="round"/> <path d="M15.5 3C15.5 3 15.5636 3.79166 15.886 4.11404C16.2083 4.43641 17 4.5 17 4.5C17 4.5 16.2083 4.56359 15.886 4.88597C15.5636 5.20834 15.5 6 15.5 6C15.5 6 15.4364 5.20834 15.114 4.88597C14.7917 4.56359 14 4.5 14 4.5C14 4.5 14.7917 4.43641 15.114 4.11404C15.4364 3.79166 15.5 3 15.5 3Z" stroke="black" stroke-width="2" stroke-linecap="round" stroke-linejoin="round"/> </svg>