<svg width="18" height="13" viewBox="0 0 18 13" fill="none" xmlns="http://www.w3.org/2000/svg">
<path d="M17.5758 1.48004C17.6417 1.40477 17.6918 1.31716 17.7232 1.22223C17.7547 1.1273 17.7669 1.027 17.759 0.927307C17.7511 0.82761 17.7234 0.730489 17.6775 0.641663C17.6315 0.552836 17.5683 0.473996 17.4915 0.409973C17.4146 0.345951 17.3258 0.298035 17.2301 0.26886C17.1345 0.239685 17.0339 0.230047 16.9345 0.240295C16.835 0.250544 16.7386 0.280365 16.6509 0.32843C16.5632 0.376495 16.486 0.441739 16.4238 0.520081L11.0328 6.99005C10.2563 7.9773 9.41975 8.91581 8.5278 9.80011C8.34915 10.0363 8.1182 10.2278 7.85309 10.3597C7.58797 10.4915 7.2959 10.5601 6.9998 10.5601C6.7037 10.5601 6.41163 10.4915 6.14651 10.3597C5.8814 10.2278 5.65045 10.0363 5.4718 9.80011C4.57985 8.91581 3.74326 7.9773 2.9668 6.99005L1.57581 5.32013C1.51364 5.24179 1.43644 5.17654 1.34874 5.12848C1.26104 5.08041 1.16462 5.05035 1.06514 5.0401C0.965659 5.02985 0.865141 5.03973 0.769485 5.06891C0.673829 5.09808 0.584959 5.146 0.508132 5.21002C0.431305 5.27404 0.368059 5.35288 0.322113 5.44171C0.276166 5.53054 0.248458 5.62766 0.2406 5.72736C0.232742 5.82705 0.244904 5.92735 0.276367 6.02228C0.307829 6.11721 0.357949 6.20482 0.423797 6.28009L1.8528 8.00006C2.66208 9.02406 3.53515 9.9959 4.4668 10.91C4.78255 11.2713 5.17194 11.5609 5.60883 11.7593C6.04571 11.9577 6.51998 12.0604 6.9998 12.0604C7.47963 12.0604 7.95389 11.9577 8.39078 11.7593C8.82766 11.5609 9.21706 11.2713 9.53281 10.91C10.4645 9.9959 11.3375 9.02406 12.1468 8.00006L17.5758 1.48004Z" fill="#2D264B"/>
</svg>
