<svg width="18" height="18" viewBox="0 0 18 18" fill="none" xmlns="http://www.w3.org/2000/svg">
<path d="M0.999849 4C0.944883 3.40731 0.996338 2.80955 1.15183 2.23498C1.25234 1.99217 1.39971 1.77152 1.58554 1.58569C1.77137 1.39986 1.99202 1.25249 2.23483 1.15198C3.40278 0.949341 4.59692 0.949341 5.76486 1.15198C6.00768 1.25249 6.22833 1.39986 6.41416 1.58569C6.59998 1.77152 6.74736 1.99217 6.84787 2.23498C7.05051 3.40293 7.05051 4.59707 6.84787 5.76501C6.74736 6.00783 6.59998 6.22848 6.41416 6.41431C6.22833 6.60013 6.00768 6.74751 5.76486 6.84802C4.59692 7.05066 3.40278 7.05066 2.23483 6.84802C1.99202 6.74751 1.77137 6.60013 1.58554 6.41431C1.39971 6.22848 1.25234 6.00783 1.15183 5.76501C0.996338 5.19045 0.944883 4.59269 0.999849 4Z" stroke="black" stroke-width="1.5"/>
<path d="M10.9998 4C10.9449 3.40731 10.9963 2.80955 11.1518 2.23498C11.2523 1.99217 11.3997 1.77152 11.5855 1.58569C11.7714 1.39986 11.992 1.25249 12.2348 1.15198C13.4028 0.949341 14.5969 0.949341 15.7649 1.15198C16.0077 1.25249 16.2283 1.39986 16.4142 1.58569C16.6 1.77152 16.7474 1.99217 16.8479 2.23498C17.0505 3.40293 17.0505 4.59707 16.8479 5.76501C16.7474 6.00783 16.6 6.22848 16.4142 6.41431C16.2283 6.60013 16.0077 6.74751 15.7649 6.84802C14.5969 7.05066 13.4028 7.05066 12.2348 6.84802C11.992 6.74751 11.7714 6.60013 11.5855 6.41431C11.3997 6.22848 11.2523 6.00783 11.1518 5.76501C10.9963 5.19045 10.9449 4.59269 10.9998 4Z" stroke="black" stroke-width="1.5"/>
<path d="M0.999849 14C0.944883 13.4073 0.996338 12.8096 1.15183 12.235C1.25234 11.9922 1.39971 11.7715 1.58554 11.5857C1.77137 11.3999 1.99202 11.2525 2.23483 11.152C3.40278 10.9493 4.59692 10.9493 5.76486 11.152C6.00768 11.2525 6.22833 11.3999 6.41416 11.5857C6.59998 11.7715 6.74736 11.9922 6.84787 12.235C7.05051 13.4029 7.05051 14.5971 6.84787 15.765C6.74736 16.0078 6.59998 16.2285 6.41416 16.4143C6.22833 16.6001 6.00768 16.7475 5.76486 16.848C4.59692 17.0507 3.40278 17.0507 2.23483 16.848C1.99202 16.7475 1.77137 16.6001 1.58554 16.4143C1.39971 16.2285 1.25234 16.0078 1.15183 15.765C0.996338 15.1904 0.944883 14.5927 0.999849 14Z" stroke="black" stroke-width="1.5"/>
<path d="M10.9998 14C10.9449 13.4073 10.9963 12.8096 11.1518 12.235C11.2523 11.9922 11.3997 11.7715 11.5855 11.5857C11.7714 11.3999 11.992 11.2525 12.2348 11.152C13.4028 10.9493 14.5969 10.9493 15.7649 11.152C16.0077 11.2525 16.2283 11.3999 16.4142 11.5857C16.6 11.7715 16.7474 11.9922 16.8479 12.235C17.0505 13.4029 17.0505 14.5971 16.8479 15.765C16.7474 16.0078 16.6 16.2285 16.4142 16.4143C16.2283 16.6001 16.0077 16.7475 15.7649 16.848C14.5969 17.0507 13.4028 17.0507 12.2348 16.848C11.992 16.7475 11.7714 16.6001 11.5855 16.4143C11.3997 16.2285 11.2523 16.0078 11.1518 15.765C10.9963 15.1904 10.9449 14.5927 10.9998 14Z" stroke="black" stroke-width="1.5"/>
</svg>
