<svg width="20" height="20" viewBox="0 0 20 20" fill="none" xmlns="http://www.w3.org/2000/svg">
<path d="M14 9V15M10 5V15M6 11V15M10 19C6.25 19 4.375 19 3.061 18.045C2.63659 17.7366 2.26336 17.3634 1.955 16.939C1 15.625 1 13.75 1 10C1 6.25 1 4.375 1.955 3.061C2.26336 2.6366 2.63659 2.26336 3.061 1.955C4.375 1 6.25 1 10 1C13.75 1 15.625 1 16.939 1.955C17.3634 2.26336 17.7366 2.6366 18.045 3.061C19 4.375 19 6.25 19 10C19 13.75 19 15.625 18.045 16.939C17.7366 17.3634 17.3634 17.7366 16.939 18.045C15.625 19 13.75 19 10 19Z" stroke="black" stroke-width="1.5" stroke-linecap="round"/>
</svg>
