<svg width="20" height="22" viewBox="0 0 20 22" fill="none" xmlns="http://www.w3.org/2000/svg">
<path d="M6.25 13C6.25131 12.8015 6.33082 12.6116 6.47119 12.4712C6.61156 12.3308 6.80149 12.2513 7 12.25H13C13.1989 12.25 13.3896 12.3291 13.5303 12.4697C13.6709 12.6104 13.75 12.8011 13.75 13C13.75 13.1989 13.6709 13.3896 13.5303 13.5303C13.3896 13.6709 13.1989 13.75 13 13.75H7C6.80149 13.7487 6.61156 13.6692 6.47119 13.5288C6.33082 13.3884 6.25131 13.1985 6.25 13Z" fill="black"/>
<path fill-rule="evenodd" clip-rule="evenodd" d="M7 0.25C7.19851 0.25131 7.38844 0.330822 7.52881 0.471191C7.66918 0.611561 7.74869 0.801492 7.75 1V2.25977C8.42 2.24977 9.15999 2.25 9.98999 2.25H10.01C10.84 2.25 11.58 2.24977 12.25 2.25977V1C12.25 0.801088 12.3291 0.610379 12.4697 0.469727C12.6104 0.329074 12.8011 0.25 13 0.25C13.1989 0.25 13.3896 0.329074 13.5303 0.469727C13.6709 0.610379 13.75 0.801088 13.75 1V2.31006C15.0352 2.29748 16.2963 2.65885 17.3799 3.3501C17.8704 3.7004 18.2996 4.12956 18.6499 4.62012C19.4404 5.92767 19.8137 7.44517 19.72 8.97021C19.75 9.83021 19.75 10.8302 19.75 11.9902V12.0098C19.75 13.1698 19.75 14.1698 19.72 15.0298C19.8137 16.5548 19.4404 18.0723 18.6499 19.3799C18.2996 19.8704 17.8704 20.2996 17.3799 20.6499C16.0724 21.4406 14.5551 21.8141 13.03 21.7202C12.17 21.7502 11.17 21.75 10.01 21.75H9.94995C8.11995 21.75 6.68004 21.7499 5.54004 21.6299C4.49644 21.5709 3.48798 21.2325 2.62012 20.6499C2.12956 20.2996 1.7004 19.8704 1.3501 19.3799C0.767665 18.512 0.429213 17.5035 0.370117 16.46C0.250117 15.32 0.25 13.8798 0.25 12.0498V11.9902C0.25 10.8302 0.250029 9.83021 0.280029 8.97021C0.186311 7.44517 0.559624 5.92767 1.3501 4.62012C1.7004 4.12956 2.12956 3.7004 2.62012 3.3501C3.70371 2.65885 4.96476 2.29748 6.25 2.31006V1C6.25131 0.801492 6.33082 0.611561 6.47119 0.471191C6.61156 0.330822 6.80149 0.25131 7 0.25ZM6.25 3.81982C5.28166 3.80036 4.3278 4.05727 3.5 4.56006C3.13861 4.82133 2.82133 5.13861 2.56006 5.5C2.05727 6.3278 1.80061 7.28166 1.82007 8.25H18.1799C18.1994 7.28166 17.9427 6.3278 17.4399 5.5C17.1787 5.13861 16.8614 4.82133 16.5 4.56006C15.6722 4.05727 14.7183 3.80036 13.75 3.81982V4C13.75 4.19891 13.6709 4.38962 13.5303 4.53027C13.3896 4.67093 13.1989 4.75 13 4.75C12.8011 4.75 12.6104 4.67093 12.4697 4.53027C12.3291 4.38962 12.25 4.19891 12.25 4V3.75977C11.59 3.74977 10.85 3.75 10 3.75C9.15 3.75 8.41 3.74977 7.75 3.75977V4C7.75 4.19891 7.67093 4.38962 7.53027 4.53027C7.38962 4.67093 7.19891 4.75 7 4.75C6.80109 4.75 6.61038 4.67093 6.46973 4.53027C6.32907 4.38962 6.25 4.19891 6.25 4V3.81982ZM18.24 9.75H1.76001C1.75001 10.41 1.75 11.15 1.75 12C1.71667 13.4344 1.75684 14.8695 1.87012 16.2998C1.898 17.0819 2.13632 17.8421 2.56006 18.5C2.82133 18.8614 3.13861 19.1787 3.5 19.4399C4.15886 19.863 4.91776 20.1047 5.69995 20.1401C6.74995 20.2501 8.11 20.25 10 20.25C10.85 20.25 11.59 20.2502 12.25 20.2402C12.2482 19.8591 12.2716 19.4781 12.3201 19.1001C12.5103 17.9008 13.0752 16.7922 13.9338 15.9336C14.7925 15.075 15.9008 14.51 17.1001 14.3198C17.4781 14.2714 17.8589 14.2482 18.24 14.25C18.25 13.59 18.25 12.85 18.25 12C18.25 11.15 18.25 10.41 18.24 9.75ZM18.1799 15.75C17.8992 15.7503 17.6189 15.7668 17.3401 15.7998C16.4523 15.9417 15.632 16.3604 14.9963 16.9961C14.3606 17.6318 13.942 18.4521 13.8 19.3398C13.767 19.6186 13.7502 19.8994 13.75 20.1802C14.7183 20.1996 15.6722 19.9427 16.5 19.4399C16.8614 19.1787 17.1787 18.8614 17.4399 18.5C17.9427 17.6722 18.1994 16.7183 18.1799 15.75Z" fill="black"/>
</svg>
