
<svg xmlns="http://www.w3.org/2000/svg" width="20" height="20" viewBox="0 0 20 20">
  <path id="Path_6205" data-name="Path 6205" d="M454,6974a10,10,0,1,0-10-10A10,10,0,0,0,454,6974Zm5.559-12.5a.75.75,0,1,0-1.118-1l-3.369,3.76a17.1,17.1,0,0,1-1.535,1.61,1.005,1.005,0,0,1-1.574,0,17.1,17.1,0,0,1-1.535-1.61l-.869-.97a.75.75,0,1,0-1.118,1l.907,1.01a16.385,16.385,0,0,0,1.65,1.71,2.443,2.443,0,0,0,3.5,0,16.385,16.385,0,0,0,1.65-1.71Z" transform="translate(-444 -6954)" fill="#5ba72a" fill-rule="evenodd"/>
</svg>
