<svg width="24" height="22" viewBox="0 0 24 22" fill="none" xmlns="http://www.w3.org/2000/svg">
<path d="M18 14.75C18.1989 14.75 18.3897 14.6709 18.5303 14.5303C18.671 14.3896 18.75 14.1989 18.75 14C18.75 13.8011 18.671 13.6104 18.5303 13.4697C18.3897 13.3291 18.1989 13.25 18 13.25H12C11.8011 13.25 11.6103 13.3291 11.4697 13.4697C11.329 13.6104 11.25 13.8011 11.25 14C11.25 14.1989 11.329 14.3896 11.4697 14.5303C11.6103 14.6709 11.8011 14.75 12 14.75H18Z" fill="#2D264B"/>
<path fill-rule="evenodd" clip-rule="evenodd" d="M18.345 0.320068C17.481 0.250068 16.405 0.25 15.034 0.25H8.966C7.595 0.25 6.519 0.250068 5.655 0.320068C4.65464 0.348669 3.68105 0.649697 2.8391 1.19067C1.99715 1.73165 1.31875 2.4919 0.876999 3.38989C0.543217 4.09876 0.354196 4.86709 0.320999 5.6499C0.249999 6.5199 0.25 7.58997 0.25 8.96997V9.03003C0.25 10.41 0.249999 11.4801 0.320999 12.3501C0.354196 13.1329 0.543217 13.9012 0.876999 14.6101C1.31875 15.5081 1.99715 16.2683 2.8391 16.8093C3.68105 17.3503 4.65464 17.6513 5.655 17.6799C6.519 17.7499 7.595 17.75 8.966 17.75H11.25V19.5801C10.624 19.6301 10.003 19.7302 9.39301 19.8799L7.81799 20.27C7.62439 20.3183 7.45789 20.4415 7.35512 20.6125C7.25235 20.7836 7.22174 20.9883 7.27 21.1819C7.31827 21.3755 7.44147 21.542 7.6125 21.6448C7.78354 21.7475 7.9884 21.7782 8.18201 21.73L9.757 21.3301C11.2307 20.97 12.7693 20.97 14.243 21.3301L15.818 21.73C16.0116 21.7782 16.2165 21.7475 16.3875 21.6448C16.5585 21.542 16.6817 21.3755 16.73 21.1819C16.7783 20.9883 16.7477 20.7836 16.6449 20.6125C16.5421 20.4415 16.3756 20.3183 16.182 20.27L14.607 19.8799C13.997 19.7302 13.376 19.6301 12.75 19.5801V17.75H15.034C16.405 17.75 17.481 17.7499 18.345 17.6799C19.3454 17.6513 20.319 17.3503 21.1609 16.8093C22.0029 16.2683 22.6813 15.5081 23.123 14.6101C23.4568 13.9012 23.6458 13.1329 23.679 12.3501C23.75 11.4801 23.75 10.41 23.75 9.03003V8.96997C23.75 7.58997 23.75 6.5199 23.679 5.6499C23.6458 4.86709 23.4568 4.09876 23.123 3.38989C22.6813 2.4919 22.0029 1.73165 21.1609 1.19067C20.319 0.649697 19.3454 0.348669 18.345 0.320068ZM18.223 16.1799C17.423 16.2499 16.413 16.25 15 16.25H9C7.587 16.25 6.57299 16.2499 5.77699 16.1799C5.18792 16.1657 4.60773 16.0332 4.071 15.79C3.2715 15.3808 2.62136 14.7299 2.213 13.9299C1.96793 13.392 1.83198 12.8108 1.813 12.22C1.748 11.43 1.74699 10.41 1.74699 9C1.74699 7.59 1.747 6.57003 1.813 5.78003C1.83198 5.18919 1.96793 4.60802 2.213 4.07007C2.62136 3.27013 3.2715 2.61918 4.071 2.20996C4.60773 1.96678 5.18792 1.83426 5.77699 1.82007C6.57699 1.75007 7.587 1.75 9 1.75H15C16.413 1.75 17.427 1.75007 18.223 1.82007C18.8121 1.83426 19.3923 1.96678 19.929 2.20996C20.7285 2.61918 21.3786 3.27013 21.787 4.07007C22.0321 4.60802 22.168 5.18919 22.187 5.78003C22.252 6.57003 22.253 7.59 22.253 9C22.253 10.41 22.253 11.43 22.187 12.22C22.168 12.8108 22.0321 13.392 21.787 13.9299C21.3786 14.7299 20.7285 15.3808 19.929 15.79C19.3923 16.0332 18.8121 16.1657 18.223 16.1799Z" fill="#2D264B"/>
<path d="M8 14C8 14.1978 7.94135 14.3912 7.83147 14.5557C7.72159 14.7201 7.56542 14.8481 7.38269 14.9238C7.19997 14.9995 6.9989 15.0193 6.80492 14.9807C6.61094 14.9421 6.43275 14.8469 6.29289 14.707C6.15304 14.5672 6.0578 14.389 6.01921 14.1951C5.98063 14.0011 6.00044 13.8002 6.07613 13.6174C6.15182 13.4347 6.27998 13.2783 6.44443 13.1685C6.60888 13.0586 6.80222 13 7 13C7.26522 13 7.51957 13.1054 7.70711 13.293C7.89465 13.4805 8 13.7348 8 14Z" fill="#2D264B"/>
</svg>
