<svg width="20" height="22" viewBox="0 0 20 22" fill="none" xmlns="http://www.w3.org/2000/svg">
<path d="M10.75 9C10.75 8.80109 10.6709 8.61038 10.5303 8.46973C10.3896 8.32907 10.1989 8.25 10 8.25C9.80109 8.25 9.61038 8.32907 9.46973 8.46973C9.32907 8.61038 9.25 8.80109 9.25 9V11.25H7C6.80109 11.25 6.61038 11.3291 6.46973 11.4697C6.32907 11.6104 6.25 11.8011 6.25 12C6.25 12.1989 6.32907 12.3896 6.46973 12.5303C6.61038 12.6709 6.80109 12.75 7 12.75H9.25V15C9.25 15.1989 9.32907 15.3896 9.46973 15.5303C9.61038 15.6709 9.80109 15.75 10 15.75C10.1989 15.75 10.3896 15.6709 10.5303 15.5303C10.6709 15.3896 10.75 15.1989 10.75 15V12.75H13C13.1989 12.75 13.3896 12.6709 13.5303 12.5303C13.6709 12.3896 13.75 12.1989 13.75 12C13.75 11.8011 13.6709 11.6104 13.5303 11.4697C13.3896 11.3291 13.1989 11.25 13 11.25H10.75V9Z" fill="black"/>
<path fill-rule="evenodd" clip-rule="evenodd" d="M13.03 0.280029C12.17 0.250029 11.17 0.25 10.01 0.25H9.94995C8.11995 0.25 6.68004 0.250117 5.54004 0.370117C4.49647 0.429213 3.48792 0.767665 2.62 1.3501C2.12947 1.70044 1.70032 2.12959 1.34998 2.62012C0.767587 3.48807 0.42914 4.49648 0.369995 5.54004C0.249995 6.68004 0.25 8.11995 0.25 9.94995V12.05C0.25 13.88 0.249995 15.32 0.369995 16.46C0.42914 17.5035 0.767587 18.5119 1.34998 19.3799C1.70032 19.8704 2.12947 20.2996 2.62 20.6499C3.48792 21.2323 4.49647 21.5708 5.54004 21.6299C6.68004 21.7499 8.11995 21.75 9.94995 21.75H10.05C11.88 21.75 13.32 21.7499 14.46 21.6299C15.5035 21.5708 16.5121 21.2323 17.38 20.6499C17.8705 20.2996 18.2997 19.8704 18.65 19.3799C19.2324 18.5119 19.5709 17.5035 19.63 16.46C19.75 15.32 19.75 13.88 19.75 12.05V9.98999C19.75 8.82999 19.75 7.82997 19.72 6.96997C19.8138 5.44492 19.4406 3.92765 18.65 2.62012C18.2997 2.12959 17.8705 1.70044 17.38 1.3501C16.0725 0.559565 14.5551 0.186247 13.03 0.280029ZM3.5 2.56006C4.15792 2.13636 4.9179 1.89805 5.69995 1.87012C7.1303 1.75685 8.56556 1.71668 10 1.75C10.85 1.75 11.59 1.75001 12.25 1.76001C12.2483 2.14114 12.2716 2.52185 12.3199 2.8999C12.5102 4.09921 13.0751 5.20753 13.9337 6.06616C14.7924 6.9248 15.9007 7.48972 17.1 7.67993C17.478 7.72835 17.8589 7.7518 18.24 7.75C18.25 8.41 18.25 9.15 18.25 10V12C18.25 13.89 18.25 15.25 18.14 16.3C18.1046 17.0823 17.8631 17.8412 17.4399 18.5C17.1787 18.8614 16.8614 19.1787 16.5 19.4399C15.8412 19.8631 15.0823 20.1045 14.3 20.1399C13.25 20.2499 11.89 20.25 10 20.25C8.11 20.25 6.74995 20.2499 5.69995 20.1399C4.91774 20.1045 4.15882 19.8631 3.5 19.4399C3.13861 19.1787 2.82133 18.8614 2.56006 18.5C2.13636 17.8421 1.89792 17.0821 1.87 16.3C1.75681 14.8697 1.71676 13.4344 1.75 12V10C1.71676 8.56556 1.75681 7.13031 1.87 5.69995C1.89792 4.9179 2.13636 4.15792 2.56006 3.5C2.82133 3.13861 3.13861 2.82133 3.5 2.56006ZM13.8 2.65991C13.767 2.38113 13.7502 2.10081 13.75 1.82007C14.7184 1.80027 15.6723 2.05696 16.5 2.56006C16.8614 2.82133 17.1787 3.13861 17.4399 3.5C17.9427 4.3278 18.1995 5.28166 18.1801 6.25C17.8993 6.24977 17.6187 6.23302 17.34 6.19995C16.4522 6.05805 15.632 5.63937 14.9963 5.00366C14.3606 4.36796 13.942 3.54767 13.8 2.65991Z" fill="black"/>
</svg>
