<svg width="18" height="22" viewBox="0 0 18 22" fill="none" xmlns="http://www.w3.org/2000/svg">
<path fill-rule="evenodd" clip-rule="evenodd" d="M9 0.25C7.74038 0.25053 6.53253 0.751163 5.64185 1.64185C4.75116 2.53253 4.25053 3.74038 4.25 5V5.25H1C0.801088 5.25 0.610318 5.32907 0.469666 5.46973C0.329013 5.61038 0.25 5.80109 0.25 6C0.25 6.19891 0.329013 6.38962 0.469666 6.53027C0.610318 6.67093 0.801088 6.75 1 6.75H17C17.1989 6.75 17.3897 6.67093 17.5303 6.53027C17.671 6.38962 17.75 6.19891 17.75 6C17.75 5.80109 17.671 5.61038 17.5303 5.46973C17.3897 5.32907 17.1989 5.25 17 5.25H13.75V5C13.7495 3.74038 13.2488 2.53253 12.3582 1.64185C11.4675 0.751163 10.2596 0.25053 9 0.25ZM9 1.75C9.86171 1.75079 10.6879 2.09356 11.2972 2.70288C11.9066 3.3122 12.2492 4.13829 12.25 5V5.25H5.75V5C5.75079 4.13829 6.09344 3.3122 6.70276 2.70288C7.31208 2.09356 8.13829 1.75079 9 1.75Z" fill="#FF0000"/>
<path d="M2.74729 7.93028C2.72873 7.73216 2.6322 7.54967 2.47898 7.42271C2.32576 7.29575 2.12839 7.23471 1.93028 7.25328C1.73216 7.27184 1.54955 7.36837 1.42259 7.52159C1.29562 7.67481 1.23471 7.8723 1.25327 8.07042C1.35327 9.07042 1.51828 10.2905 1.73728 11.8705L2.01927 13.8902C2.14034 15.2217 2.39223 16.5383 2.77128 17.8204C3.02041 18.6019 3.42545 19.3247 3.96189 19.9452C4.49833 20.5657 5.15505 21.0708 5.89231 21.4303C6.84414 21.726 7.84414 21.8347 8.83726 21.7503H9.16331C10.1564 21.8347 11.1564 21.726 12.1083 21.4303C12.8455 21.0708 13.5022 20.5657 14.0387 19.9452C14.5751 19.3247 14.9802 18.6019 15.2293 17.8204C15.6083 16.5383 15.8602 15.2217 15.9813 13.8902L16.2633 11.8705C16.4823 10.2905 16.6523 9.07042 16.7473 8.07042C16.7565 7.97232 16.7462 7.87331 16.7172 7.77916C16.6882 7.68501 16.6408 7.59746 16.578 7.52159C16.5151 7.44572 16.4379 7.38305 16.3508 7.33702C16.2637 7.29099 16.1684 7.26247 16.0703 7.25328C15.9722 7.24409 15.8732 7.25426 15.7791 7.28331C15.6849 7.31236 15.5974 7.35985 15.5216 7.42271C15.4457 7.48558 15.383 7.56265 15.337 7.64976C15.2909 7.73688 15.2625 7.83218 15.2533 7.93028C15.1623 8.89028 14.9963 10.0803 14.7743 11.6803L14.5123 13.5604C14.4006 14.8261 14.1692 16.0784 13.8213 17.3004C13.6434 17.8903 13.3479 18.4381 12.9526 18.9107C12.5573 19.3834 12.0704 19.771 11.5213 20.0504C9.8485 20.317 8.14407 20.317 6.47129 20.0504C5.92215 19.771 5.43524 19.3834 5.03996 18.9107C4.64467 18.4381 4.3492 17.8903 4.1713 17.3004C3.82335 16.0784 3.59194 14.8261 3.48026 13.5604L3.2183 11.6803C3.0003 10.0803 2.83829 8.89028 2.74729 7.93028Z" fill="#FF0000"/>
<path d="M7.75 9C7.75 8.80109 7.67099 8.61038 7.53033 8.46973C7.38968 8.32907 7.19891 8.25 7 8.25C6.80109 8.25 6.61032 8.32907 6.46967 8.46973C6.32901 8.61038 6.25 8.80109 6.25 9V17C6.25 17.1989 6.32901 17.3896 6.46967 17.5303C6.61032 17.6709 6.80109 17.75 7 17.75C7.19891 17.75 7.38968 17.6709 7.53033 17.5303C7.67099 17.3896 7.75 17.1989 7.75 17V9Z" fill="#FF0000"/>
<path d="M11.75 9C11.75 8.80109 11.671 8.61038 11.5303 8.46973C11.3897 8.32907 11.1989 8.25 11 8.25C10.8011 8.25 10.6103 8.32907 10.4697 8.46973C10.329 8.61038 10.25 8.80109 10.25 9V17C10.25 17.1989 10.329 17.3896 10.4697 17.5303C10.6103 17.6709 10.8011 17.75 11 17.75C11.1989 17.75 11.3897 17.6709 11.5303 17.5303C11.671 17.3896 11.75 17.1989 11.75 17V9Z" fill="#FF0000"/>
</svg>
