<svg width="24" height="22" viewBox="0 0 24 22" fill="none" xmlns="http://www.w3.org/2000/svg">
<path fill-rule="evenodd" clip-rule="evenodd" d="M18.345 0.320068C17.481 0.250068 16.405 0.25 15.034 0.25H8.966C7.595 0.25 6.519 0.250068 5.655 0.320068C4.65464 0.348669 3.68103 0.649697 2.83908 1.19067C1.99713 1.73165 1.31876 2.4919 0.877014 3.38989C0.543207 4.09875 0.354185 4.86709 0.321014 5.6499C0.250014 6.5199 0.25 7.58997 0.25 8.96997V9.03003C0.25 10.41 0.250014 11.4801 0.321014 12.3501C0.354185 13.1329 0.543207 13.9013 0.877014 14.6101C1.31876 15.5081 1.99713 16.2683 2.83908 16.8093C3.68103 17.3503 4.65464 17.6513 5.655 17.6799C6.519 17.7499 7.595 17.75 8.966 17.75H11.25V19.5801C10.624 19.6301 10.003 19.7302 9.39301 19.8799L7.81799 20.27C7.62439 20.3183 7.4579 20.4415 7.35513 20.6125C7.25236 20.7836 7.22172 20.9883 7.26999 21.1819C7.31826 21.3755 7.44149 21.542 7.61252 21.6448C7.78355 21.7475 7.9884 21.7782 8.18201 21.73L9.75699 21.3301C11.2307 20.97 12.7693 20.97 14.243 21.3301L15.818 21.73C16.0116 21.7782 16.2164 21.7475 16.3875 21.6448C16.5585 21.542 16.6817 21.3755 16.73 21.1819C16.7783 20.9883 16.7476 20.7836 16.6449 20.6125C16.5421 20.4415 16.3756 20.3183 16.182 20.27L14.607 19.8799C13.997 19.7302 13.376 19.6301 12.75 19.5801V17.75H15.034C16.405 17.75 17.481 17.7499 18.345 17.6799C19.3454 17.6513 20.319 17.3503 21.1609 16.8093C22.0029 16.2683 22.6812 15.5081 23.123 14.6101C23.4568 13.9013 23.6458 13.1329 23.679 12.3501C23.75 11.4801 23.75 10.41 23.75 9.03003V8.96997C23.75 7.58997 23.75 6.5199 23.679 5.6499C23.6458 4.86709 23.4568 4.09875 23.123 3.38989C22.6812 2.4919 22.0029 1.73165 21.1609 1.19067C20.319 0.649697 19.3454 0.348669 18.345 0.320068ZM18.223 16.1799C17.423 16.2499 16.413 16.25 15 16.25H9C7.587 16.25 6.57301 16.2499 5.77701 16.1799C5.18793 16.1657 4.60774 16.0332 4.07101 15.79C3.27152 15.3808 2.62137 14.7299 2.21301 13.9299C1.96794 13.392 1.83196 12.8108 1.81299 12.22C1.74799 11.43 1.74701 10.41 1.74701 9C1.74701 7.59 1.74699 6.57003 1.81299 5.78003C1.83196 5.18919 1.96794 4.60802 2.21301 4.07007C2.62137 3.27013 3.27152 2.61918 4.07101 2.20996C4.60774 1.96678 5.18793 1.83426 5.77701 1.82007C6.57701 1.75007 7.587 1.75 9 1.75H15C16.413 1.75 17.427 1.75007 18.223 1.82007C18.8121 1.83426 19.3923 1.96678 19.929 2.20996C20.7285 2.61918 21.3786 3.27013 21.787 4.07007C22.0321 4.60802 22.168 5.18919 22.187 5.78003C22.252 6.57003 22.253 7.59 22.253 9C22.253 10.41 22.253 11.43 22.187 12.22C22.168 12.8108 22.0321 13.392 21.787 13.9299C21.3786 14.7299 20.7285 15.3808 19.929 15.79C19.3923 16.0332 18.8121 16.1657 18.223 16.1799Z" fill="black"/>
</svg>
