<svg width="20" height="20" viewBox="0 0 20 20" fill="none" xmlns="http://www.w3.org/2000/svg">
<path d="M11.7508 7C11.7508 6.80109 11.6718 6.61038 11.5311 6.46973C11.3905 6.32907 11.1998 6.25 11.0008 6.25C10.8019 6.25 10.6112 6.32907 10.4706 6.46973C10.3299 6.61038 10.2508 6.80109 10.2508 7V13.9399L10.2108 13.8999C9.76104 13.5182 9.33375 13.1109 8.9309 12.6799L7.53088 11.27C7.3887 11.1375 7.20064 11.0654 7.00634 11.0688C6.81204 11.0723 6.62667 11.1509 6.48925 11.2883C6.35184 11.4257 6.27308 11.6111 6.26965 11.8054C6.26622 11.9997 6.33834 12.1879 6.47082 12.3301L7.90087 13.77C8.33283 14.2287 8.79022 14.6627 9.27087 15.0701C9.65763 15.4185 10.1369 15.6476 10.6509 15.73C10.8832 15.76 11.1185 15.76 11.3508 15.73C11.8648 15.6476 12.3441 15.4185 12.7308 15.0701C13.2115 14.6627 13.6689 14.2287 14.1008 13.77L15.5309 12.3301C15.6634 12.1879 15.7355 11.9997 15.7321 11.8054C15.7286 11.6111 15.6499 11.4257 15.5124 11.2883C15.375 11.1509 15.1897 11.0723 14.9954 11.0688C14.8011 11.0654 14.613 11.1375 14.4708 11.27L13.0708 12.6799C12.6679 13.1109 12.2407 13.5182 11.7909 13.8999L11.7508 13.9399V7Z" fill="black"/>
<path fill-rule="evenodd" clip-rule="evenodd" d="M17.38 1.3501C16.5121 0.767665 15.5035 0.429213 14.46 0.370117C13.32 0.250117 11.88 0.25 10.05 0.25H9.98999C8.82999 0.25 7.82997 0.250029 6.96997 0.280029C5.44492 0.186247 3.92753 0.559565 2.62 1.3501C2.12947 1.70044 1.70032 2.12959 1.34998 2.62012C0.559443 3.92765 0.186247 5.44492 0.280029 6.96997C0.250029 7.82997 0.25 8.82999 0.25 9.98999V10.05C0.25 11.88 0.249995 13.32 0.369995 14.46C0.42914 15.5035 0.767587 16.5119 1.34998 17.3799C1.70032 17.8704 2.12947 18.2996 2.62 18.6499C3.48792 19.2323 4.49647 19.5708 5.54004 19.6299C6.68004 19.7499 8.11995 19.75 9.94995 19.75H10.05C11.88 19.75 13.32 19.7499 14.46 19.6299C15.5035 19.5708 16.5121 19.2323 17.38 18.6499C17.8705 18.2996 18.2997 17.8704 18.65 17.3799C19.2324 16.5119 19.5709 15.5035 19.63 14.46C19.75 13.32 19.75 11.88 19.75 10.05V9.94995C19.75 8.11995 19.75 6.68004 19.63 5.54004C19.5709 4.49648 19.2324 3.48807 18.65 2.62012C18.2997 2.12959 17.8705 1.70044 17.38 1.3501ZM10 1.75C11.4344 1.71668 12.8697 1.75685 14.3 1.87012C15.0821 1.89805 15.8421 2.13636 16.5 2.56006C16.8614 2.82133 17.1787 3.13861 17.4399 3.5C17.8631 4.15884 18.1046 4.91775 18.14 5.69995C18.25 6.74995 18.25 8.11 18.25 10C18.25 11.89 18.25 13.25 18.14 14.3C18.1046 15.0823 17.8631 15.8412 17.4399 16.5C17.1787 16.8614 16.8614 17.1787 16.5 17.4399C15.8412 17.8631 15.0823 18.1045 14.3 18.1399C13.25 18.2499 11.89 18.25 10 18.25C8.11 18.25 6.74995 18.2499 5.69995 18.1399C4.91774 18.1045 4.15882 17.8631 3.5 17.4399C3.13861 17.1787 2.82133 16.8614 2.56006 16.5C2.13636 15.8421 1.89792 15.0821 1.87 14.3C1.75681 12.8697 1.71676 11.4344 1.75 10C1.75 9.15 1.75001 8.41 1.76001 7.75C2.14114 7.7518 2.52198 7.72835 2.90002 7.67993C4.09933 7.48972 5.20765 6.9248 6.06628 6.06616C6.92492 5.20753 7.48985 4.09921 7.68005 2.8999C7.72841 2.52185 7.75174 2.14114 7.75 1.76001C8.41 1.75001 9.15 1.75 10 1.75ZM2.66003 6.19995C2.38125 6.23302 2.10068 6.24977 1.81995 6.25C1.80049 5.28166 2.05727 4.3278 2.56006 3.5C2.82133 3.13861 3.13861 2.82133 3.5 2.56006C4.32767 2.05696 5.28162 1.80027 6.25 1.82007C6.24978 2.10081 6.23303 2.38113 6.19995 2.65991C6.05805 3.54767 5.63937 4.36796 5.00366 5.00366C4.36796 5.63937 3.54779 6.05805 2.66003 6.19995Z" fill="black"/>
</svg>
