<svg width="15" height="18" viewBox="0 0 15 18" fill="none" xmlns="http://www.w3.org/2000/svg">
<path fill-rule="evenodd" clip-rule="evenodd" d="M10.9491 1.33001C10.3124 0.934729 9.6511 0.580611 8.96913 0.269953C8.41176 0.00373408 7.78004 -0.0632696 7.17921 0.0800119C6.58767 0.254691 6.07507 0.629179 5.72914 1.13983C5.29044 1.74932 4.89295 2.38756 4.53919 3.04998L0.65919 9.75994C0.417073 10.138 0.222205 10.5444 0.0791117 10.9699C0.0611381 11.0254 0.0478426 11.0822 0.0391947 11.1398C-0.0250712 11.6467 -0.00144418 12.161 0.109141 12.6598L0.13917 12.82C0.246304 13.7209 0.416735 14.613 0.64918 15.4899C0.808578 16.1956 1.2397 16.81 1.84913 17.1999C2.16691 17.3653 2.51428 17.4664 2.87123 17.4972C3.22817 17.5281 3.58773 17.4882 3.92921 17.3798C4.80412 17.1387 5.66251 16.8415 6.49916 16.4899L6.64918 16.4299C7.1477 16.3096 7.61064 16.0729 8.00001 15.7392C8.38938 15.4054 8.69407 14.9842 8.88917 14.5099L12.7592 7.79998C13.1526 7.15881 13.5065 6.49425 13.8191 5.80999C14.0853 5.25262 14.1524 4.62079 14.0092 4.01995C13.8345 3.42841 13.4598 2.91594 12.9491 2.57C12.3372 2.13485 11.6995 1.73726 11.0392 1.37982L10.9491 1.33001ZM11.0592 7.73992L5.42921 4.48992L2.00917 10.4199C1.79887 10.7295 1.63073 11.0658 1.50917 11.4199C1.49006 11.7927 1.5237 12.1665 1.60914 12.53C1.71521 13.3819 1.87213 14.2268 2.07911 15.06C2.24911 15.6 2.41913 15.7998 2.59913 15.8998C2.91392 16.0352 3.26912 16.0424 3.58912 15.9199C4.41332 15.6892 5.22173 15.4054 6.00917 15.07C6.36751 14.9649 6.708 14.8065 7.01918 14.6C7.27433 14.3252 7.48366 14.0111 7.63917 13.6699L11.0592 7.73992ZM11.8092 6.43988C12.0406 6.05312 12.2476 5.65239 12.4292 5.23992C12.5652 4.98594 12.6111 4.69325 12.5592 4.40985C12.5192 4.22985 12.3992 4.03994 12.0292 3.75994C11.4582 3.35529 10.8638 2.98454 10.2492 2.64984C9.6503 2.28759 9.0328 1.95714 8.39918 1.65985C8.14698 1.5186 7.85241 1.4726 7.5691 1.52996C7.3891 1.56996 7.19919 1.68999 6.90919 2.05999C6.64637 2.42162 6.40583 2.79888 6.1891 3.18988L11.8092 6.43988Z" fill="black"/>
</svg>
