<svg width="20" height="22" viewBox="0 0 20 22" fill="none" xmlns="http://www.w3.org/2000/svg">
    <path d="M10.7508 8C10.7508 7.80109 10.6718 7.61038 10.5311 7.46973C10.3905 7.32907 10.1998 7.25 10.0008 7.25C9.80194 7.25 9.61123 7.32907 9.47058 7.46973C9.32992 7.61038 9.25085 7.80109 9.25085 8V14.9399L9.21081 14.8999C8.76104 14.5182 8.33375 14.1109 7.9309 13.6799L6.53088 12.27C6.3887 12.1375 6.20064 12.0654 6.00634 12.0688C5.81204 12.0723 5.62667 12.1509 5.48925 12.2883C5.35184 12.4257 5.27308 12.6111 5.26965 12.8054C5.26622 12.9997 5.33834 13.1879 5.47082 13.3301L6.90087 14.77C7.33283 15.2287 7.79022 15.6627 8.27087 16.0701C8.65763 16.4185 9.13687 16.6476 9.65087 16.73C9.88324 16.76 10.1185 16.76 10.3508 16.73C10.8648 16.6476 11.3441 16.4185 11.7308 16.0701C12.2115 15.6627 12.6689 15.2287 13.1008 14.77L14.5309 13.3301C14.6634 13.1879 14.7355 12.9997 14.7321 12.8054C14.7286 12.6111 14.6499 12.4257 14.5124 12.2883C14.375 12.1509 14.1897 12.0723 13.9954 12.0688C13.8011 12.0654 13.613 12.1375 13.4708 12.27L12.0708 13.6799C11.6679 14.1109 11.2407 14.5182 10.7909 14.8999L10.7609 14.9299L10.7571 14.9307L10.7538 14.9329L10.7516 14.9363L10.7508 14.9399V8Z" fill="#2D264B"/>
    <path fill-rule="evenodd" clip-rule="evenodd" d="M17.38 1.3501C16.5121 0.767665 15.5035 0.429213 14.46 0.370117C13.32 0.250117 11.88 0.25 10.05 0.25H9.98999C8.82999 0.25 7.82997 0.250029 6.96997 0.280029C5.44492 0.186247 3.92753 0.559565 2.62 1.3501C2.12947 1.70044 1.70032 2.12959 1.34998 2.62012C0.559443 3.92765 0.186247 5.44492 0.280029 6.96997C0.250029 7.82997 0.25 8.82999 0.25 9.98999V12.05C0.25 13.88 0.249995 15.32 0.369995 16.46C0.42914 17.5035 0.767587 18.5119 1.34998 19.3799C1.70032 19.8704 2.12947 20.2996 2.62 20.6499C3.48792 21.2323 4.49647 21.5708 5.54004 21.6299C6.68004 21.7499 8.11995 21.75 9.94995 21.75H10.05C11.88 21.75 13.32 21.7499 14.46 21.6299C15.5035 21.5708 16.5121 21.2323 17.38 20.6499C17.8705 20.2996 18.2997 19.8704 18.65 19.3799C19.2324 18.5119 19.5709 17.5035 19.63 16.46C19.75 15.32 19.75 13.88 19.75 12.05V9.94995C19.75 8.11995 19.75 6.68004 19.63 5.54004C19.5709 4.49648 19.2324 3.48807 18.65 2.62012C18.2997 2.12959 17.8705 1.70044 17.38 1.3501ZM10 1.75C11.4344 1.71668 12.8697 1.75685 14.3 1.87012C15.0821 1.89805 15.8421 2.13636 16.5 2.56006C16.8614 2.82133 17.1787 3.13861 17.4399 3.5C17.8631 4.15884 18.1046 4.91775 18.14 5.69995C18.25 6.74995 18.25 8.11 18.25 10V12C18.25 13.89 18.25 15.25 18.14 16.3C18.1046 17.0823 17.8631 17.8412 17.4399 18.5C17.1787 18.8614 16.8614 19.1787 16.5 19.4399C15.8412 19.8631 15.0823 20.1045 14.3 20.1399C13.25 20.2499 11.89 20.25 10 20.25C8.11 20.25 6.74995 20.2499 5.69995 20.1399C4.91774 20.1045 4.15882 19.8631 3.5 19.4399C3.13861 19.1787 2.82133 18.8614 2.56006 18.5C2.13636 17.8421 1.89792 17.0821 1.87 16.3C1.75681 14.8697 1.71676 13.4344 1.75 12V10C1.75 9.15 1.75001 8.41 1.76001 7.75C2.14114 7.7518 2.52198 7.72835 2.90002 7.67993C4.09933 7.48972 5.20765 6.9248 6.06628 6.06616C6.92492 5.20753 7.48985 4.09921 7.68005 2.8999C7.72841 2.52185 7.75174 2.14114 7.75 1.76001C8.41 1.75001 9.15 1.75 10 1.75ZM2.66003 6.19995C2.38125 6.23302 2.10068 6.24977 1.81995 6.25C1.80049 5.28166 2.05727 4.3278 2.56006 3.5C2.82133 3.13861 3.13861 2.82133 3.5 2.56006C4.32767 2.05696 5.28162 1.80027 6.25 1.82007C6.24978 2.10081 6.23303 2.38113 6.19995 2.65991C6.05805 3.54767 5.63937 4.36796 5.00366 5.00366C4.36796 5.63937 3.54779 6.05805 2.66003 6.19995Z" fill="#2D264B"/>
    </svg>
    