<svg width="20" height="22" viewBox="0 0 20 22" fill="none" xmlns="http://www.w3.org/2000/svg">
    <path d="M5.25 11C5.25131 10.8015 5.3307 10.6116 5.47107 10.4712C5.61144 10.3308 5.80149 10.2513 6 10.25H9C9.19891 10.25 9.38962 10.3291 9.53027 10.4697C9.67093 10.6104 9.75 10.8011 9.75 11C9.75 11.1989 9.67093 11.3896 9.53027 11.5303C9.38962 11.6709 9.19891 11.75 9 11.75H6C5.80149 11.7487 5.61144 11.6692 5.47107 11.5288C5.3307 11.3884 5.25131 11.1985 5.25 11Z" fill="#2D264B"/>
    <path d="M5.25 15C5.25131 14.8015 5.3307 14.6116 5.47107 14.4712C5.61144 14.3308 5.80149 14.2513 6 14.25H14C14.1989 14.25 14.3896 14.3291 14.5303 14.4697C14.6709 14.6104 14.75 14.8011 14.75 15C14.75 15.1989 14.6709 15.3896 14.5303 15.5303C14.3896 15.6709 14.1989 15.75 14 15.75H6C5.80149 15.7487 5.61144 15.6692 5.47107 15.5288C5.3307 15.3884 5.25131 15.1985 5.25 15Z" fill="#2D264B"/>
    <path fill-rule="evenodd" clip-rule="evenodd" d="M14.03 0.330078C14.9799 0.368486 15.9135 0.58906 16.78 0.97998C16.9892 1.08781 17.1897 1.21163 17.38 1.3501C17.8705 1.70044 18.2997 2.12959 18.65 2.62012C19.2324 3.48807 19.5709 4.49648 19.63 5.54004C19.75 6.68004 19.75 8.11995 19.75 9.94995V12.05C19.75 13.88 19.75 15.32 19.63 16.46C19.5709 17.5035 19.2324 18.5119 18.65 19.3799C18.2997 19.8704 17.8705 20.2996 17.38 20.6499C16.5121 21.2323 15.5035 21.5708 14.46 21.6299C13.32 21.7499 11.88 21.75 10.05 21.75H9.94995C8.11995 21.75 6.68004 21.7499 5.54004 21.6299C4.49647 21.5708 3.48792 21.2323 2.62 20.6499C2.12947 20.2996 1.70032 19.8704 1.34998 19.3799C0.767587 18.5119 0.42914 17.5035 0.369995 16.46C0.249995 15.32 0.25 13.88 0.25 12.05V9.94995C0.25 8.11995 0.249995 6.68004 0.369995 5.54004C0.42914 4.49648 0.767587 3.48807 1.34998 2.62012C1.70032 2.12959 2.12947 1.70044 2.62 1.3501C2.98931 1.08288 3.39734 0.873668 3.82996 0.72998C4.65647 0.472832 5.51468 0.331565 6.38 0.310059C7.37 0.250059 8.54998 0.25 9.97998 0.25H10.03C11.66 0.25 12.97 0.250078 14.03 0.330078ZM13.91 1.83008C12.91 1.75008 11.66 1.75 10 1.75C8.55 1.75 7.40997 1.75005 6.46997 1.80005C6.13997 1.82005 5.84996 1.84988 5.57996 1.87988C6.24709 2.55808 6.94808 3.20241 7.68005 3.81006C8.11528 4.23764 8.64631 4.55494 9.229 4.73584C9.8117 4.91674 10.4292 4.95603 11.03 4.8501C11.7604 4.70192 12.4373 4.35998 12.99 3.86011C13.57 3.40011 14.23 2.77998 15.05 1.97998C14.6741 1.90314 14.2931 1.85311 13.91 1.83008ZM16.55 2.6001C15.7159 3.46172 14.8346 4.27625 13.91 5.04004C13.1568 5.69953 12.2425 6.14808 11.26 6.34009C10.6634 6.42993 10.0566 6.42993 9.45996 6.34009C8.44828 6.1373 7.50923 5.66765 6.73999 4.97998C5.74617 4.14504 4.79816 3.25717 3.90002 2.32007C3.75984 2.38804 3.62595 2.46835 3.5 2.56006C3.13861 2.82133 2.82133 3.13861 2.56006 3.5C2.13636 4.15792 1.89792 4.9179 1.87 5.69995C1.75681 7.13031 1.71676 8.56556 1.75 10V12C1.71676 13.4344 1.75681 14.8697 1.87 16.3C1.89792 17.0821 2.13636 17.8421 2.56006 18.5C2.82133 18.8614 3.13861 19.1787 3.5 19.4399C4.15882 19.8631 4.91774 20.1045 5.69995 20.1399C6.74995 20.2499 8.11 20.25 10 20.25C11.89 20.25 13.25 20.2499 14.3 20.1399C15.0823 20.1045 15.8412 19.8631 16.5 19.4399C16.8614 19.1787 17.1787 18.8614 17.4399 18.5C17.8631 17.8412 18.1046 17.0823 18.14 16.3C18.25 15.25 18.25 13.89 18.25 12V10C18.25 8.11 18.25 6.74995 18.14 5.69995C18.1387 5.09437 17.9939 4.49783 17.7175 3.95898C17.4412 3.42014 17.0411 2.95447 16.55 2.6001Z" fill="#2D264B"/>
    </svg>
    