<svg width="22" height="22" viewBox="0 0 22 22" fill="none" xmlns="http://www.w3.org/2000/svg">
<path d="M19.5701 7.50703C20.0216 8.6161 20.2525 9.80255 20.25 11H21.75C21.752 9.60862 21.4837 8.23007 20.96 6.94099L19.5701 7.50703ZM20.25 11C20.2498 11.6435 20.1829 12.2853 20.0501 12.915L21.52 13.224C21.6729 12.4925 21.75 11.7473 21.75 11H20.25ZM20.0501 12.915C19.6788 14.6682 18.8063 16.276 17.5388 17.5429C16.2714 18.8099 14.6633 19.6815 12.9099 20.052L13.22 21.52C15.2589 21.0895 17.1288 20.0758 18.6023 18.6023C20.0758 17.1288 21.0895 15.2589 21.52 13.22L20.0501 12.915ZM12.9099 20.052C12.282 20.1854 11.6419 20.2524 11 20.252V21.752C11.746 21.7528 12.49 21.6757 13.22 21.522L12.9099 20.052ZM11 20.252C10.3581 20.2524 9.718 20.1854 9.0901 20.052L8.78004 21.52C9.51002 21.6738 10.254 21.7508 11 21.75V20.252ZM1.75001 11.002C1.74744 9.8039 1.97834 8.61678 2.42994 7.50703L1.04005 6.94001C0.516382 8.23014 0.248049 9.60966 0.250011 11.002H1.75001ZM9.0901 20.054C7.33671 19.6835 5.72867 18.8118 4.46119 17.5449C3.19372 16.2779 2.32121 14.6702 1.94996 12.917L0.479991 13.226C0.910549 15.2649 1.92421 17.1348 3.39772 18.6083C4.87122 20.0818 6.74115 21.0954 8.78004 21.526L9.0901 20.054ZM1.94996 12.917C1.81716 12.2873 1.75018 11.6456 1.75001 11.002H0.250011C0.250056 11.7493 0.327111 12.4946 0.479991 13.226L1.94996 12.917ZM2.42994 7.50703C3.00356 6.10842 3.91012 4.87106 5.07081 3.90259C6.23151 2.93413 7.61137 2.26386 9.0901 1.95002L8.78004 0.482001C7.06133 0.846235 5.45764 1.625 4.10865 2.75056C2.75966 3.87611 1.70626 5.31434 1.04005 6.94001L2.42994 7.50703ZM9.0901 1.95002C9.718 1.81663 10.3581 1.74959 11 1.75001V0.250007C10.254 0.249185 9.51002 0.32625 8.78004 0.479987L9.0901 1.95002ZM11 1.75001C11.6419 1.74959 12.282 1.81663 12.9099 1.95002L13.22 0.482001C12.49 0.328264 11.746 0.251199 11 0.252021V1.75001ZM12.9099 1.95002C14.3888 2.26414 15.7688 2.93475 16.9295 3.90357C18.0902 4.87239 18.9967 6.11004 19.5701 7.50898L20.96 6.943C20.2942 5.31672 19.2411 3.87788 17.8921 2.75178C16.5431 1.62567 14.939 0.846449 13.22 0.482001L12.9099 1.95002ZM12.3501 1.44398C13.1112 3.81119 13.6863 6.23423 14.0701 8.69099L15.5601 8.49103C15.1616 5.94877 14.5664 3.44124 13.78 0.991034L12.3501 1.44398ZM14.0701 8.69099C14.1803 9.45658 14.2404 10.2286 14.25 11.002H15.75C15.7438 10.1603 15.6804 9.32006 15.5601 8.48701L14.0701 8.69099ZM19.96 6.542C18.2244 7.07186 16.4619 7.50914 14.6799 7.852L14.95 9.32703C16.7895 8.97504 18.6088 8.52435 20.3999 7.977L19.96 6.542ZM14.6799 7.852C13.4673 8.09271 12.236 8.22658 11 8.25202V9.75202C12.3266 9.72648 13.6483 9.58428 14.95 9.32703L14.6799 7.852ZM14.25 11.002C14.2264 12.1738 14.1025 13.3414 13.8799 14.492L15.3601 14.756C15.5985 13.5183 15.7289 12.2623 15.75 11.002H14.25ZM13.8799 14.492C13.4943 16.544 12.9836 18.5705 12.3501 20.56L13.78 21.016C14.4353 18.9639 14.9631 16.8732 15.3601 14.756L13.8799 14.492ZM20.5601 12.357C18.5693 12.9883 16.5422 13.4989 14.49 13.886L14.75 15.362C16.8668 14.9643 18.9573 14.438 21.01 13.786L20.5601 12.357ZM14.49 13.886C13.3392 14.107 12.1716 14.2294 11 14.252V15.752C12.2589 15.7295 13.5135 15.599 14.75 15.362L14.49 13.886ZM11 14.252C9.82839 14.2294 8.66084 14.107 7.51002 13.886L7.25001 15.362C8.48656 15.599 9.74116 15.7295 11 15.752V14.252ZM7.51002 13.886C5.45777 13.4989 3.43069 12.9883 1.43995 12.357L0.990001 13.786C3.04272 14.438 5.13327 14.9643 7.25001 15.362L7.51002 13.886ZM6.25001 11C6.27113 12.2603 6.40151 13.5163 6.6399 14.754L8.12013 14.49C7.89754 13.3393 7.77364 12.1718 7.75001 11H6.25001ZM6.6399 14.754C7.03693 16.8713 7.56468 18.9619 8.21998 21.014L9.64991 20.558C9.01646 18.5685 8.50572 16.542 8.12013 14.49L6.6399 14.754ZM8.21998 0.986029C7.4336 3.43624 6.83845 5.94376 6.43995 8.48603L7.92994 8.68598C8.31376 6.22923 8.88881 3.80624 9.64991 1.43903L8.21998 0.986029ZM6.43995 8.48603C6.31966 9.31908 6.25624 10.1583 6.25001 11H7.75001C7.75964 10.2266 7.8197 9.4556 7.92994 8.69001L6.43995 8.48603ZM11 8.25098C9.76401 8.22554 8.53269 8.09173 7.32008 7.85102L7.05006 9.326C8.35171 9.58324 9.67343 9.72544 11 9.75098V8.25098ZM7.32008 7.85102C5.53771 7.50963 3.7751 7.07097 2.04005 6.53901L1.60011 7.97602C3.3914 8.52288 5.21062 8.9735 7.05006 9.326L7.32008 7.85102ZM19.9199 6.55903C19.9329 6.55222 19.9463 6.54718 19.96 6.542L20.3999 7.977C20.4719 7.95386 20.5423 7.92445 20.6101 7.891L19.9199 6.55903ZM1.35011 7.85902C1.42847 7.9071 1.51243 7.9454 1.60011 7.97303L2.04005 6.53699C2.07116 6.54848 2.10111 6.56252 2.12989 6.57899L1.35011 7.85902Z" fill="#2D264B"/>
</svg>
