<svg width="22" height="22" viewBox="0 0 22 22" fill="none" xmlns="http://www.w3.org/2000/svg">
<path d="M12 15C12 15.1978 11.9414 15.3911 11.8315 15.5556C11.7216 15.72 11.5654 15.8482 11.3827 15.9239C11.2 15.9996 10.9989 16.0194 10.8049 15.9808C10.6109 15.9422 10.4328 15.8469 10.2929 15.7071C10.153 15.5672 10.0578 15.3891 10.0192 15.1951C9.98064 15.0011 10.0004 14.8 10.0761 14.6173C10.1518 14.4346 10.28 14.2784 10.4445 14.1685C10.6089 14.0586 10.8022 14 11 14C11.2652 14 11.5196 14.1054 11.7071 14.2929C11.8946 14.4804 12 14.7348 12 15Z" fill="black"/>
<path d="M11 6V12M21 11C21 12.9778 20.4135 14.9112 19.3147 16.5557C18.2159 18.2002 16.6541 19.4819 14.8268 20.2388C12.9996 20.9957 10.9889 21.1937 9.04908 20.8079C7.10927 20.422 5.32748 19.4696 3.92896 18.0711C2.53043 16.6726 1.578 14.8907 1.19214 12.9509C0.806291 11.0111 1.00436 9.00042 1.76123 7.17316C2.51811 5.3459 3.79979 3.78412 5.44428 2.6853C7.08877 1.58649 9.02219 1 11 1C13.6522 1 16.1957 2.05356 18.071 3.92892C19.9464 5.80429 21 8.34784 21 11Z" stroke="black" stroke-width="1.5" stroke-linecap="round"/>
</svg>
