<svg width="22" height="22" viewBox="0 0 22 22" fill="none" xmlns="http://www.w3.org/2000/svg">
<path fill-rule="evenodd" clip-rule="evenodd" d="M7.99963 8.25C7.48822 8.25079 6.98726 8.3942 6.55285 8.66406C6.11844 8.93393 5.76771 9.31947 5.5404 9.77759C5.31309 10.2357 5.21812 10.7482 5.26599 11.2573C5.31385 11.7665 5.50269 12.2522 5.8114 12.6599C6.1201 13.0676 6.53645 13.3813 7.01354 13.5654C7.49064 13.7496 8.00973 13.7972 8.51232 13.7026C9.01492 13.6081 9.48118 13.3752 9.85876 13.0303C10.2363 12.6853 10.5101 12.242 10.6495 11.75H12.4896C12.5438 12.0247 12.505 12.3097 12.3795 12.5601L12.3297 12.6599C12.2395 12.8376 12.2236 13.044 12.2855 13.2334C12.3474 13.4228 12.4818 13.5797 12.6595 13.6699C12.8372 13.7601 13.0436 13.776 13.233 13.7141C13.4224 13.6522 13.5794 13.5178 13.6696 13.3401L13.7196 13.23C13.9546 12.7743 14.0519 12.2601 13.9996 11.75H15.4896C15.5438 12.0247 15.505 12.3097 15.3795 12.5601L15.3297 12.6599C15.2395 12.8376 15.2236 13.044 15.2855 13.2334C15.3474 13.4228 15.4818 13.5797 15.6595 13.6699C15.8372 13.7601 16.0436 13.776 16.233 13.7141C16.4224 13.6522 16.5794 13.5178 16.6696 13.3401L16.7196 13.23C16.912 12.8485 17.0123 12.4272 17.0123 12C17.0123 11.5728 16.912 11.1515 16.7196 10.77C16.6423 10.6134 16.5226 10.4816 16.3741 10.3896C16.2256 10.2977 16.0542 10.2494 15.8795 10.25H10.6495C10.4843 9.67442 10.1365 9.1681 9.65856 8.80737C9.1806 8.44664 8.59844 8.25104 7.99963 8.25ZM6.74963 11C6.74963 10.7528 6.82297 10.511 6.96032 10.3054C7.09767 10.0999 7.29295 9.93982 7.52136 9.84521C7.74976 9.75061 8.00105 9.72569 8.24353 9.77393C8.486 9.82216 8.7086 9.9414 8.88342 10.1162C9.05823 10.291 9.17747 10.5136 9.2257 10.7561C9.27393 10.9986 9.24902 11.2499 9.15441 11.4783C9.0598 11.7067 8.89977 11.902 8.69421 12.0393C8.48865 12.1767 8.24686 12.25 7.99963 12.25C7.66819 12.2497 7.35045 12.1179 7.11608 11.8835C6.88172 11.6492 6.74989 11.3314 6.74963 11Z" fill="#2D264B"/>
<path fill-rule="evenodd" clip-rule="evenodd" d="M11 0.250001C8.87385 0.250001 6.79542 0.880543 5.02759 2.06177C3.25976 3.24299 1.882 4.92193 1.06836 6.88623C0.254717 8.85054 0.0417514 11.0119 0.456543 13.0972C0.871334 15.1825 1.89527 17.0979 3.39868 18.6013C4.9021 20.1047 6.81754 21.1287 8.90283 21.5435C10.9881 21.9582 13.1495 21.7453 15.1138 20.9316C17.0781 20.118 18.757 18.7402 19.9382 16.9724C21.1195 15.2046 21.75 13.1262 21.75 11C21.7505 9.58814 21.4729 8.18999 20.9329 6.8855C20.3928 5.58101 19.6009 4.3958 18.6025 3.39746C17.6042 2.39913 16.419 1.60719 15.1145 1.06714C13.81 0.527088 12.4119 0.249475 11 0.250001ZM1.75 11C1.75 9.17052 2.29243 7.38224 3.30884 5.86108C4.32524 4.33993 5.76999 3.15421 7.4602 2.4541C9.15042 1.75399 11.0104 1.57082 12.8047 1.92774C14.599 2.28465 16.2471 3.16559 17.5408 4.45923C18.8344 5.75287 19.7154 7.40099 20.0723 9.19531C20.4292 10.9896 20.246 12.8496 19.5459 14.5398C18.8458 16.23 17.6601 17.6748 16.1389 18.6912C14.6178 19.7076 12.8295 20.25 11 20.25C9.7852 20.2503 8.58234 20.0112 7.45996 19.5464C6.33758 19.0816 5.31773 18.4003 4.45874 17.5413C3.59975 16.6823 2.91838 15.6624 2.45361 14.54C1.98885 13.4177 1.74974 12.2148 1.75 11Z" fill="#2D264B"/>
</svg>
