<svg width="20" height="20" viewBox="0 0 20 20" fill="none" xmlns="http://www.w3.org/2000/svg">
<path fill-rule="evenodd" clip-rule="evenodd" d="M6.99963 7.25C6.48822 7.25079 5.98726 7.3942 5.55285 7.66406C5.11844 7.93393 4.76771 8.31947 4.5404 8.77759C4.31309 9.2357 4.21812 9.74816 4.26599 10.2573C4.31385 10.7665 4.50269 11.2522 4.8114 11.6599C5.1201 12.0676 5.53645 12.3813 6.01354 12.5654C6.49064 12.7496 7.00973 12.7972 7.51232 12.7026C8.01492 12.6081 8.48118 12.3752 8.85876 12.0303C9.23634 11.6853 9.51005 11.242 9.64953 10.75H11.4896C11.5438 11.0247 11.505 11.3097 11.3795 11.5601L11.3297 11.6599C11.2395 11.8376 11.2236 12.044 11.2855 12.2334C11.3474 12.4228 11.4818 12.5797 11.6595 12.6699C11.8372 12.7601 12.0436 12.776 12.233 12.7141C12.4224 12.6522 12.5794 12.5178 12.6696 12.3401L12.7196 12.23C12.9546 11.7743 13.0519 11.2601 12.9996 10.75H14.4896C14.5438 11.0247 14.505 11.3097 14.3795 11.5601L14.3297 11.6599C14.2395 11.8376 14.2236 12.044 14.2855 12.2334C14.3474 12.4228 14.4818 12.5797 14.6595 12.6699C14.8372 12.7601 15.0436 12.776 15.233 12.7141C15.4224 12.6522 15.5794 12.5178 15.6696 12.3401L15.7196 12.23C15.912 11.8485 16.0123 11.4272 16.0123 11C16.0123 10.5728 15.912 10.1515 15.7196 9.77002C15.6423 9.61341 15.5226 9.48158 15.3741 9.38965C15.2256 9.29772 15.0542 9.24937 14.8795 9.25H9.64953C9.48433 8.67442 9.13653 8.1681 8.65856 7.80737C8.1806 7.44664 7.59844 7.25104 6.99963 7.25ZM5.74963 10C5.74963 9.75277 5.82297 9.51098 5.96032 9.30542C6.09767 9.09986 6.29295 8.93982 6.52136 8.84521C6.74976 8.75061 7.00105 8.72569 7.24353 8.77393C7.486 8.82216 7.7086 8.9414 7.88342 9.11621C8.05823 9.29103 8.17747 9.51363 8.2257 9.7561C8.27393 9.99858 8.24902 10.2499 8.15441 10.4783C8.0598 10.7067 7.89977 10.902 7.69421 11.0393C7.48865 11.1767 7.24686 11.25 6.99963 11.25C6.66819 11.2497 6.35045 11.1179 6.11608 10.8835C5.88172 10.6492 5.74989 10.3314 5.74963 10Z" fill="#2D264B"/>
<path fill-rule="evenodd" clip-rule="evenodd" d="M14.46 0.370117C13.32 0.250117 11.88 0.25 10.05 0.25H9.94995C8.11995 0.25 6.68004 0.250117 5.54004 0.370117C4.49646 0.429165 3.48802 0.767621 2.62012 1.3501C2.12951 1.70034 1.70034 2.12951 1.3501 2.62012C0.767621 3.48802 0.429165 4.49646 0.370117 5.54004C0.250117 6.68004 0.25 8.11995 0.25 9.94995V10.05C0.25 11.88 0.250117 13.32 0.370117 14.46C0.429165 15.5035 0.767621 16.512 1.3501 17.3799C1.70034 17.8705 2.12951 18.2997 2.62012 18.6499C3.48802 19.2324 4.49646 19.5708 5.54004 19.6299C6.68004 19.7499 8.11995 19.75 9.94995 19.75H10.05C11.88 19.75 13.32 19.7499 14.46 19.6299C15.5035 19.5708 16.512 19.2324 17.3799 18.6499C17.8705 18.2997 18.2997 17.8705 18.6499 17.3799C19.2324 16.512 19.5708 15.5035 19.6299 14.46C19.7499 13.32 19.75 11.88 19.75 10.05V9.94995C19.75 8.11995 19.7499 6.68004 19.6299 5.54004C19.5708 4.49646 19.2324 3.48802 18.6499 2.62012C18.2997 2.12951 17.8705 1.70034 17.3799 1.3501C16.512 0.767621 15.5035 0.429165 14.46 0.370117ZM3.5 2.56006C4.1579 2.13631 4.91789 1.898 5.69995 1.87012C8.56438 1.70996 11.4356 1.70996 14.3 1.87012C15.0821 1.898 15.8421 2.13631 16.5 2.56006C16.8614 2.82133 17.1787 3.13861 17.4399 3.5C17.8631 4.15882 18.1045 4.91774 18.1399 5.69995C18.2499 6.74995 18.25 8.11 18.25 10C18.25 11.89 18.2499 13.25 18.1399 14.3C18.1045 15.0823 17.8631 15.8412 17.4399 16.5C17.1787 16.8614 16.8614 17.1787 16.5 17.4399C15.8412 17.8631 15.0823 18.1045 14.3 18.1399C13.25 18.2499 11.89 18.25 10 18.25C8.11 18.25 6.74995 18.2499 5.69995 18.1399C4.91774 18.1045 4.15882 17.8631 3.5 17.4399C3.13861 17.1787 2.82133 16.8614 2.56006 16.5C2.13631 15.8421 1.898 15.0821 1.87012 14.3C1.70996 11.4356 1.70996 8.56438 1.87012 5.69995C1.898 4.91789 2.13631 4.1579 2.56006 3.5C2.82133 3.13861 3.13861 2.82133 3.5 2.56006Z" fill="#2D264B"/>
</svg>
