<svg width="20" height="20" viewBox="0 0 20 20" fill="none" xmlns="http://www.w3.org/2000/svg">
<path d="M5 12.857L6.46 9.88C6.62468 9.54384 6.88305 9.26245 7.20399 9.06976C7.52492 8.87708 7.89472 8.78132 8.26884 8.79401C8.64296 8.80669 9.00544 8.92726 9.31259 9.14124C9.61974 9.35521 9.85846 9.65345 10 10C10.1415 10.3465 10.3803 10.6448 10.6874 10.8588C10.9946 11.0727 11.357 11.1933 11.7312 11.206C12.1053 11.2187 12.4751 11.1229 12.796 10.9302C13.1169 10.7376 13.3753 10.4562 13.54 10.12L15 7.14301M10 19C6.25 19 4.375 19 3.061 18.045C2.63659 17.7366 2.26336 17.3634 1.955 16.939C1 15.625 1 13.75 1 10C1 6.25 1 4.37497 1.955 3.06097C2.26336 2.63657 2.63659 2.26338 3.061 1.95502C4.375 1.00002 6.25 1 10 1C13.75 1 15.625 1.00002 16.939 1.95502C17.3634 2.26338 17.7366 2.63657 18.045 3.06097C19 4.37497 19 6.25 19 10C19 13.75 19 15.625 18.045 16.939C17.7366 17.3634 17.3634 17.7366 16.939 18.045C15.625 19 13.75 19 10 19Z" stroke="black" stroke-width="1.5" stroke-linecap="round"/>
</svg>
