<svg width="23" height="23" viewBox="0 0 23 23" fill="none" xmlns="http://www.w3.org/2000/svg">
<path d="M11.99 4.94604C12.1889 4.9487 12.3807 4.8722 12.5232 4.73343C12.6657 4.59465 12.7473 4.40494 12.75 4.20602C12.7527 4.00711 12.6761 3.81529 12.5374 3.67276C12.3986 3.53023 12.2089 3.4487 12.01 3.44604L11.99 4.94604ZM19.74 11.18C19.7396 11.0812 19.7195 10.9835 19.6809 10.8925C19.6423 10.8015 19.5861 10.7191 19.5154 10.6501C19.4446 10.5812 19.361 10.527 19.269 10.4907C19.1771 10.4545 19.0788 10.4369 18.98 10.439C18.7817 10.443 18.5928 10.5248 18.4543 10.6668C18.3159 10.8089 18.2389 10.9997 18.24 11.198L19.74 11.18ZM9.01001 12.508C8.93888 12.5768 8.88238 12.6591 8.84375 12.7502C8.80512 12.8412 8.78516 12.9391 8.78516 13.038C8.78516 13.1369 8.80512 13.2348 8.84375 13.3259C8.88238 13.417 8.93888 13.4993 9.01001 13.568C9.07957 13.6377 9.16223 13.693 9.25317 13.7307C9.34412 13.7684 9.44159 13.7878 9.54004 13.7878C9.63849 13.7878 9.73596 13.7684 9.8269 13.7307C9.91785 13.693 10.0005 13.6377 10.0701 13.568L9.01001 12.508ZM14.48 0.267027C14.3815 0.267684 14.2841 0.28772 14.1934 0.326018C14.1026 0.364316 14.0204 0.420125 13.9512 0.490233C13.882 0.560341 13.8274 0.643403 13.7903 0.734648C13.7532 0.825894 13.7345 0.923541 13.7351 1.02203C13.7358 1.12052 13.7556 1.21791 13.7939 1.30865C13.8322 1.3994 13.8881 1.48172 13.9583 1.5509C14.0284 1.62008 14.1114 1.67477 14.2026 1.71185C14.2939 1.74894 14.3915 1.76768 14.49 1.76703L14.48 0.267027ZM20.8101 8.08502C20.8086 8.18322 20.8265 8.28072 20.863 8.37189C20.8995 8.46305 20.9539 8.54607 21.0227 8.61612C21.0915 8.68616 21.1736 8.74184 21.2642 8.77994C21.3547 8.81803 21.4518 8.83779 21.55 8.83804C21.7494 8.83885 21.941 8.76095 22.0833 8.62128C22.2256 8.4816 22.3072 8.29142 22.3101 8.09204L20.8101 8.08502ZM20.8301 1.74603L20.3701 1.15402L20.3301 1.18304L20.3 1.21603L20.8301 1.74603ZM10 21.435C8.11 21.435 6.74995 21.435 5.69995 21.32C4.91726 21.2874 4.15766 21.0456 3.5 20.62L2.62012 21.834C3.48881 22.414 4.49711 22.7504 5.54004 22.808C6.69004 22.933 8.14 22.932 10 22.932V21.435ZM0.25 13.185C0.25 15.043 0.250117 16.497 0.370117 17.648C0.429191 18.6904 0.767676 19.6976 1.3501 20.564L2.56006 19.683C2.13559 19.0255 1.89721 18.2652 1.87012 17.483C1.75694 16.0527 1.71678 14.6175 1.75 13.183L0.25 13.185ZM3.5 20.623C3.13886 20.3614 2.82163 20.0442 2.56006 19.683L1.3501 20.564C1.70199 21.0541 2.13088 21.484 2.62012 21.837L3.5 20.623ZM18.25 13.185C18.2832 14.6195 18.2431 16.0547 18.1299 17.485C18.1028 18.2672 17.8644 19.0275 17.4399 19.685L18.6499 20.566C19.2323 19.6996 19.5708 18.6924 19.6299 17.65C19.7499 16.499 19.75 15.045 19.75 13.187L18.25 13.185ZM10 22.935C11.86 22.935 13.31 22.935 14.46 22.811C15.5029 22.7534 16.5112 22.417 17.3799 21.837L16.5 20.623C15.8423 21.0486 15.0827 21.2903 14.3 21.323C13.25 21.437 11.89 21.438 10 21.438V22.935ZM17.4399 19.683C17.1784 20.0442 16.8611 20.3614 16.5 20.623L17.3799 21.837C17.8691 21.484 18.298 21.0541 18.6499 20.564L17.4399 19.683ZM10 3.43503C8.14 3.43503 6.69004 3.43504 5.54004 3.55804C4.49702 3.61604 3.48873 3.95271 2.62012 4.53302L3.5 5.74603C4.15747 5.32002 4.91719 5.07826 5.69995 5.04602C6.74995 4.93202 8.11 4.93103 10 4.93103V3.43503ZM1.75 13.185C1.71676 11.7506 1.75693 10.3154 1.87012 8.88504C1.89721 8.10285 2.13559 7.34258 2.56006 6.68503L1.3501 5.80304C0.767809 6.66955 0.429337 7.67672 0.370117 8.71902C0.250117 9.87102 0.25 11.325 0.25 13.183L1.75 13.185ZM2.62012 4.53302C2.13113 4.88596 1.70227 5.31548 1.3501 5.80502L2.56006 6.68704C2.82187 6.32582 3.13906 6.00823 3.5 5.74603L2.62012 4.53302ZM10 4.93304C10.74 4.93304 11.4 4.93303 11.99 4.94003L12.01 3.44003C11.4 3.43303 10.73 3.43304 10 3.43304V4.93304ZM19.75 13.183C19.75 12.448 19.75 11.783 19.74 11.174L18.24 11.192C18.25 11.792 18.25 12.446 18.25 13.183H19.75ZM14.49 1.76102L16.97 1.75003L16.96 0.250029L14.48 0.261015L14.49 1.76102ZM20.8201 5.59701L20.8101 8.07904L22.3101 8.08603L22.3201 5.60303L20.8201 5.59701ZM16.97 1.75003C17.98 1.75003 18.67 1.74402 19.2 1.80102C19.5389 1.80756 19.8687 1.91174 20.1499 2.10104L21.0701 0.915038C20.5699 0.553159 19.9765 0.342166 19.3601 0.307036C18.5617 0.245704 17.7605 0.22568 16.96 0.247038L16.97 1.75003ZM22.3201 5.60303C22.3201 4.63103 22.33 3.83903 22.26 3.20303C22.2227 2.58615 22.0111 1.99249 21.6499 1.49103L20.46 2.40903C20.654 2.69115 20.7618 3.02369 20.77 3.36603C20.82 3.89303 20.8201 4.58502 20.8201 5.59302L22.3201 5.60303ZM10.0701 13.562L21.3601 2.27103L20.3 1.21002L9.01001 12.5L10.0701 13.562ZM20.1499 2.10403C20.2106 2.1482 20.2676 2.19737 20.3201 2.25104L21.3799 1.19202C21.2846 1.09193 21.1811 1.00027 21.0701 0.918028L20.1499 2.10403ZM20.3201 2.25104C20.371 2.30119 20.4177 2.35535 20.46 2.41302L21.6499 1.49502C21.5686 1.38756 21.4782 1.28721 21.3799 1.19504L20.3201 2.25104ZM21.29 2.33304L21.3101 2.31302L20.3899 1.12903L20.3701 1.14804L21.29 2.33304Z" fill="black"/>
</svg>
