<svg width="20" height="22" viewBox="0 0 20 22" fill="none" xmlns="http://www.w3.org/2000/svg">
<g clip-path="url(#clip0_298_3)">
<path d="M10.75 12C10.75 11.8011 10.671 11.6103 10.5303 11.4697C10.3897 11.329 10.199 11.25 10 11.25C9.80114 11.25 9.61043 11.329 9.46977 11.4697C9.32912 11.6103 9.25005 11.8011 9.25005 12H10.75ZM9.25005 16C9.25005 16.1989 9.32912 16.3897 9.46977 16.5303C9.61043 16.671 9.80114 16.75 10 16.75C10.199 16.75 10.3897 16.671 10.5303 16.5303C10.671 16.3897 10.75 16.1989 10.75 16H9.25005ZM8.00005 7.75H12V6.25H8.00005V7.75ZM12 20.25H8.00005V21.75H12V20.25ZM8.00005 20.25C6.89241 20.3342 5.77838 20.2642 4.68999 20.042L4.22002 21.469C5.45978 21.7451 6.73309 21.8398 8.00005 21.75V20.25ZM0.250048 14C0.159591 15.2659 0.253942 16.5382 0.530077 17.777L1.96001 17.313C1.73636 16.2238 1.66571 15.1087 1.75005 14H0.250048ZM4.68999 20.042C4.05134 19.8358 3.47077 19.4809 2.99614 19.0065C2.52151 18.532 2.16641 17.9516 1.96001 17.313L0.530077 17.777C0.810491 18.6397 1.29088 19.424 1.93218 20.0656C2.57347 20.7073 3.35743 21.1881 4.22002 21.469L4.68999 20.042ZM18.25 14C18.3344 15.1087 18.2637 16.2238 18.0401 17.313L19.47 17.777C19.7462 16.5382 19.8405 15.2659 19.75 14H18.25ZM12 21.75C13.267 21.8398 14.5403 21.7451 15.7801 21.469L15.3101 20.042C14.2217 20.2642 13.1077 20.3342 12 20.25V21.75ZM18.0401 17.313C17.8337 17.9516 17.4786 18.532 17.004 19.0065C16.5293 19.4809 15.9488 19.8358 15.3101 20.042L15.7801 21.469C16.6427 21.1881 17.4266 20.7073 18.0679 20.0656C18.7092 19.424 19.1896 18.6397 19.47 17.777L18.0401 17.313ZM19.75 14C19.8405 12.7341 19.7462 11.4618 19.47 10.223L18.0401 10.687C18.2637 11.7762 18.3344 12.8913 18.25 14H19.75ZM15.3101 7.95801C15.9488 8.16418 16.5293 8.51907 17.004 8.99353C17.4786 9.46799 17.8337 10.0484 18.0401 10.687L19.47 10.223C19.1896 9.36028 18.7092 8.57603 18.0679 7.93439C17.4266 7.29275 16.6427 6.81189 15.7801 6.53101L15.3101 7.95801ZM1.75005 14C1.66571 12.8913 1.73636 11.7762 1.96001 10.687L0.530077 10.223C0.253942 11.4618 0.159591 12.7341 0.250048 14H1.75005ZM4.22002 6.53101C3.35743 6.81189 2.57347 7.29275 1.93218 7.93439C1.29088 8.57603 0.810491 9.36028 0.530077 10.223L1.96001 10.687C2.16641 10.0484 2.52151 9.46799 2.99614 8.99353C3.47077 8.51907 4.05134 8.16418 4.68999 7.95801L4.22002 6.53101ZM14.25 6V7H15.75V6H14.25ZM5.75005 7V6H4.25005V7H5.75005ZM10 1.75C10.5582 1.74974 11.111 1.85951 11.6268 2.073C12.1425 2.28649 12.6112 2.5995 13.0059 2.9942C13.4006 3.3889 13.7136 3.85754 13.927 4.37329C14.1405 4.88904 14.2503 5.44181 14.25 6H15.75C15.7504 5.24479 15.6021 4.49693 15.3133 3.79913C15.0245 3.10133 14.6007 2.46724 14.0667 1.93323C13.5327 1.39921 12.8988 0.975715 12.201 0.68689C11.5032 0.398066 10.7553 0.249606 10 0.250001V1.75ZM10 0.250001C9.24484 0.249606 8.49692 0.398066 7.79912 0.68689C7.10132 0.975715 6.46741 1.39921 5.9334 1.93323C5.39938 2.46724 4.97564 3.10133 4.68682 3.79913C4.39799 4.49693 4.24965 5.24479 4.25005 6H5.75005C5.74979 5.44181 5.85956 4.88904 6.07305 4.37329C6.28654 3.85754 6.59949 3.3889 6.99419 2.9942C7.38889 2.5995 7.85759 2.28649 8.37334 2.073C8.88909 1.85951 9.44186 1.74974 10 1.75V0.250001ZM9.25005 12V16H10.75V12H9.25005ZM8.00005 6.25C6.95841 6.21285 5.91534 6.25432 4.87993 6.37402L5.12017 7.85303C6.07653 7.75074 7.03889 7.71728 8.00005 7.75299V6.25ZM4.87993 6.37402C4.65632 6.40981 4.43579 6.46228 4.22002 6.53101L4.68999 7.95801C4.83081 7.91465 4.97467 7.8812 5.12017 7.85797L4.87993 6.37402ZM4.25005 7V7.11401H5.75005V7H4.25005ZM12 7.75C12.9612 7.71429 13.9236 7.74768 14.8799 7.84998L15.1202 6.37097C14.0848 6.25127 13.0417 6.20986 12 6.24701V7.75ZM14.8799 7.84998C15.0254 7.8732 15.1693 7.90665 15.3101 7.95001L15.7801 6.52301C15.5643 6.45428 15.3438 6.40182 15.1202 6.36603L14.8799 7.84998ZM14.25 6.99701V7.11102H15.75V7L14.25 6.99701Z" fill="#FF0000"/>
</g>
<defs>
<clipPath id="clip0_298_3">
<rect width="20" height="22" fill="white"/>
</clipPath>
</defs>
</svg>
