<svg width="20" height="20" viewBox="0 0 20 20" fill="none" xmlns="http://www.w3.org/2000/svg">
<path d="M11.4497 18.5999C11.5284 18.5408 11.5948 18.4667 11.645 18.382C11.6951 18.2972 11.7282 18.2034 11.7421 18.1059C11.7561 18.0084 11.7507 17.9091 11.7263 17.8137C11.7018 17.7183 11.6589 17.6286 11.5998 17.5499C11.5407 17.4711 11.4665 17.4047 11.3818 17.3545C11.297 17.3043 11.2032 17.2713 11.1057 17.2574C11.0082 17.2435 10.9091 17.2489 10.8137 17.2733C10.7183 17.2978 10.6285 17.3408 10.5498 17.3999L11.4497 18.5999ZM10.5498 2.59987C10.6285 2.65896 10.7183 2.70195 10.8137 2.7264C10.9091 2.75084 11.0082 2.75625 11.1057 2.74233C11.2032 2.7284 11.297 2.6954 11.3818 2.64522C11.4665 2.59504 11.5407 2.52867 11.5998 2.44988C11.6589 2.37108 11.7018 2.2814 11.7263 2.18599C11.7507 2.09058 11.7561 1.99129 11.7421 1.89378C11.7282 1.79628 11.6951 1.7025 11.645 1.61775C11.5948 1.533 11.5284 1.45895 11.4497 1.39986L10.5498 2.59987ZM4.9997 9.24986C4.80079 9.24986 4.61008 9.32888 4.46943 9.46953C4.32878 9.61018 4.2497 9.80095 4.2497 9.99986C4.2497 10.1988 4.32878 10.3895 4.46943 10.5302C4.61008 10.6709 4.80079 10.7499 4.9997 10.7499V9.24986ZM15.4697 5.41185C15.3132 5.29316 15.1165 5.2403 14.9216 5.26454C14.7267 5.28879 14.5491 5.38823 14.4265 5.54164C14.3038 5.69506 14.246 5.89032 14.2653 6.08577C14.2846 6.28122 14.3795 6.4614 14.5297 6.58788L15.4697 5.41185ZM14.5297 13.4079C14.3795 13.5343 14.2846 13.7145 14.2653 13.91C14.246 14.1054 14.3038 14.3007 14.4265 14.4541C14.5491 14.6075 14.7267 14.7069 14.9216 14.7312C15.1165 14.7554 15.3132 14.7026 15.4697 14.5839L14.5297 13.4079ZM7.9997 18.2499H6.9997V19.7499H7.9997V18.2499ZM1.7497 12.9999V6.99986H0.249702V12.9999H1.7497ZM6.9997 1.74986H7.9997V0.249864H6.9997V1.74986ZM1.7497 6.99986C1.72857 6.44437 1.74533 5.88808 1.79975 5.33486L0.31977 5.10088C0.25203 5.73179 0.228571 6.36668 0.249702 7.00087L1.7497 6.99986ZM6.9997 0.249864C6.36548 0.227453 5.73058 0.251197 5.0998 0.320878L5.33979 1.80187C5.89125 1.74612 6.44583 1.72874 6.9997 1.74986V0.249864ZM1.79975 5.33486C1.94184 4.44789 2.36072 3.62858 2.99653 2.99403C3.63233 2.35949 4.45254 1.9422 5.33979 1.80187L5.0998 0.320878C3.90037 0.510794 2.79174 1.07556 1.93305 1.93425C1.07436 2.79294 0.509686 3.90145 0.31977 5.10088L1.79975 5.33486ZM6.9997 18.2499C6.44583 18.271 5.89125 18.2536 5.33979 18.1979L5.0998 19.6789C5.73058 19.7485 6.36548 19.7723 6.9997 19.7499V18.2499ZM0.249702 12.9999C0.228571 13.6341 0.25203 14.2689 0.31977 14.8999L1.79975 14.6658C1.74533 14.1126 1.72857 13.5564 1.7497 13.0009L0.249702 12.9999ZM5.33979 18.1999C4.45254 18.0595 3.63233 17.6423 2.99653 17.0077C2.36072 16.3732 1.94184 15.5538 1.79975 14.6669L0.31977 14.9009C0.509686 16.1003 1.07436 17.2088 1.93305 18.0675C2.79174 18.9262 3.90037 19.4909 5.0998 19.6809L5.33979 18.1999ZM7.9997 19.7519C9.24405 19.7533 10.455 19.3496 11.4497 18.6019L10.5498 17.4019C9.81479 17.9548 8.91944 18.2529 7.9997 18.2509V19.7519ZM7.9997 1.75188C8.91944 1.74985 9.81479 2.04793 10.5498 2.60088L11.4497 1.40086C10.455 0.653153 9.24405 0.249495 7.9997 0.250871V1.75188ZM4.9997 10.7519H17.9997V9.25188H4.9997V10.7519ZM14.5297 6.58986L16.2998 7.98985L17.2297 6.81386L15.4697 5.41387L14.5297 6.58986ZM16.2998 12.0159L14.5297 13.4158L15.4697 14.5919L17.2297 13.1918L16.2998 12.0159ZM16.2998 7.98787C17.0098 8.55587 17.4998 8.94385 17.8298 9.26985C18.0227 9.425 18.1652 9.63377 18.2397 9.86986L19.7197 9.63387C19.6027 9.08227 19.3117 8.58279 18.8896 8.20888C18.3614 7.71318 17.8074 7.24583 17.2297 6.80885L16.2998 7.98787ZM17.2297 13.1879C17.8074 12.7509 18.3614 12.2836 18.8896 11.7879C19.3117 11.4139 19.6027 10.9145 19.7197 10.3629L18.2397 10.1269C18.1652 10.363 18.0227 10.5717 17.8298 10.7269C17.4998 11.0529 17.0098 11.4409 16.2998 12.0089L17.2297 13.1879ZM18.2397 9.86485C18.248 9.90868 18.2513 9.95328 18.2497 9.99785H19.7497C19.7497 9.87424 19.7396 9.75085 19.7197 9.62886L18.2397 9.86485ZM18.2497 9.99785C18.2513 10.0424 18.248 10.0871 18.2397 10.1309L19.7197 10.3669C19.7396 10.2449 19.7497 10.1215 19.7497 9.99785H18.2497ZM17.9997 10.7478H18.9997V9.24785H17.9997V10.7478Z" fill="black"/>
</svg>
