<svg width="24" height="24" viewBox="0 0 24 24" fill="none" xmlns="http://www.w3.org/2000/svg">
<path d="M3.49945 20.4997C4.32945 21.3297 5.66945 21.3297 6.49945 20.4997L19.4995 7.4997C20.3295 6.6697 20.3295 5.3297 19.4995 4.4997C18.6695 3.6697 17.3295 3.6697 16.4995 4.4997L3.49945 17.4997C2.66945 18.3297 2.66945 19.6697 3.49945 20.4997Z" stroke="black" stroke-width="1.5" stroke-linecap="round" stroke-linejoin="round"/>
<path d="M18.0098 8.98975L15.0098 5.98975" stroke="black" stroke-width="1.5" stroke-linecap="round" stroke-linejoin="round"/>
<path d="M8.5 2.43976L10 1.99976L9.56 3.49976L10 4.99976L8.5 4.55976L7 4.99976L7.44 3.49976L7 1.99976L8.5 2.43976Z" stroke="black" stroke-width="1.5" stroke-linecap="round" stroke-linejoin="round"/>
<path d="M4.5 8.43976L6 7.99976L5.56 9.49976L6 10.9998L4.5 10.5598L3 10.9998L3.44 9.49976L3 7.99976L4.5 8.43976Z" stroke="black" stroke-width="1.5" stroke-linecap="round" stroke-linejoin="round"/>
<path d="M19.5 13.4398L21 12.9998L20.56 14.4998L21 15.9998L19.5 15.5598L18 15.9998L18.44 14.4998L18 12.9998L19.5 13.4398Z" stroke="black" stroke-width="1.5" stroke-linecap="round" stroke-linejoin="round"/>
</svg>
