<svg width="22" height="21" viewBox="0 0 22 21" fill="none" xmlns="http://www.w3.org/2000/svg">
<path d="M7 10.25C6.80109 10.25 6.61038 10.329 6.46973 10.4697C6.32908 10.6103 6.25 10.8011 6.25 11C6.25 11.1989 6.32908 11.3897 6.46973 11.5303C6.61038 11.671 6.80109 11.75 7 11.75V10.25ZM15 11.75C15.1989 11.75 15.3896 11.671 15.5303 11.5303C15.6709 11.3897 15.75 11.1989 15.75 11C15.75 10.8011 15.6709 10.6103 15.5303 10.4697C15.3896 10.329 15.1989 10.25 15 10.25V11.75ZM9 6.25C8.80109 6.25 8.61038 6.32901 8.46973 6.46967C8.32908 6.61032 8.25 6.80109 8.25 7C8.25 7.19891 8.32908 7.38968 8.46973 7.53033C8.61038 7.67099 8.80109 7.75 9 7.75V6.25ZM13 7.75C13.1989 7.75 13.3896 7.67099 13.5303 7.53033C13.6709 7.38968 13.75 7.19891 13.75 7C13.75 6.80109 13.6709 6.61032 13.5303 6.46967C13.3896 6.32901 13.1989 6.25 13 6.25V7.75ZM13 0.25H9V1.75H13V0.25ZM0.250002 9V13.228H1.75V9H0.250002ZM21.75 10.184V9H20.25V10.184H21.75ZM4.77002 17.75H5.37012V16.25H4.77002V17.75ZM8.48999 20.426L11.1101 18.561L10.23 17.34L7.62012 19.205L8.48999 20.426ZM13.6399 17.75H14.1799V16.25H13.6399V17.75ZM11.1101 18.561C11.1223 18.548 11.1354 18.5363 11.1499 18.526L10.29 17.3C10.27 17.311 10.26 17.322 10.23 17.34L11.1101 18.561ZM13.6399 16.25H13.5701L13.5801 17.75H13.6399V16.25ZM11.1499 18.526C11.8621 18.0261 12.71 17.7553 13.5801 17.75L13.5701 16.25C12.3952 16.2569 11.2505 16.6233 10.29 17.3L11.1499 18.526ZM5.37012 17.75C5.42765 17.75 5.48427 17.764 5.53516 17.7909C5.58605 17.8177 5.62961 17.8566 5.66211 17.904C5.69461 17.9515 5.71507 18.0062 5.72168 18.0633C5.72829 18.1205 5.72076 18.1784 5.69995 18.232L7.09009 18.789C7.20259 18.508 7.24433 18.2037 7.21192 17.9028C7.1795 17.6018 7.07381 17.3134 6.90405 17.0629C6.7343 16.8123 6.50574 16.6071 6.23828 16.4654C5.97083 16.3237 5.6728 16.2497 5.37012 16.25V17.75ZM5.69995 18.232C5.55095 18.603 5.52636 19.0124 5.62964 19.3987C5.73292 19.7849 5.95865 20.1273 6.27295 20.3745C6.58725 20.6216 6.97307 20.7602 7.3728 20.7695C7.77254 20.7788 8.16455 20.6583 8.48999 20.426L7.62012 19.205C7.55838 19.2491 7.48384 19.2721 7.40796 19.2704C7.33208 19.2687 7.25892 19.2424 7.19922 19.1956C7.13952 19.1487 7.09658 19.0838 7.07691 19.0105C7.05723 18.9372 7.06188 18.8595 7.09009 18.789L5.69995 18.232ZM20.25 10.184C20.3169 11.1912 20.2599 12.2028 20.0801 13.196L21.52 13.618C21.7477 12.4885 21.825 11.3338 21.75 10.184H20.25ZM14.1799 17.75C15.3318 17.8246 16.4887 17.7466 17.6201 17.518L17.2 16.078C16.2044 16.2614 15.1898 16.3191 14.1799 16.25V17.75ZM20.0801 13.196C19.8783 13.8784 19.5091 14.4995 19.0061 15.0029C18.5031 15.5062 17.8822 15.8758 17.2 16.078L17.6201 17.518C18.545 17.247 19.3869 16.7478 20.0684 16.0663C20.7499 15.3848 21.249 14.5429 21.52 13.618L20.0801 13.196ZM0.250002 13.228C0.249476 13.8218 0.366079 14.4099 0.593019 14.9586C0.81996 15.5074 1.15271 16.006 1.57251 16.426C1.99231 16.846 2.49091 17.1791 3.03955 17.4063C3.58819 17.6335 4.1762 17.7503 4.77002 17.75V16.25C4.37326 16.25 3.9803 16.1718 3.61377 16.0199C3.24724 15.868 2.91425 15.6454 2.63379 15.3648C2.35333 15.0841 2.1309 14.751 1.97925 14.3843C1.8276 14.0177 1.74974 13.6248 1.75 13.228H0.250002ZM9 0.25C7.61 0.25 6.5299 0.249999 5.6499 0.320999C4.86709 0.354196 4.09876 0.543217 3.38989 0.876999L4.07007 2.213C4.60802 1.96793 5.18919 1.83198 5.78003 1.813C6.57003 1.748 7.59 1.74699 9 1.74699V0.25ZM1.75 9C1.75 7.587 1.75007 6.57299 1.82007 5.77699C1.83426 5.18792 1.96679 4.60773 2.20996 4.071L0.879885 3.39C0.541718 4.09927 0.351383 4.86986 0.32007 5.655C0.25007 6.526 0.250002 7.612 0.250002 9H1.75ZM3.38989 0.876999C2.30887 1.42863 1.43022 2.30832 0.879885 3.39L2.20996 4.071C2.61918 3.2715 3.27013 2.62136 4.07007 2.213L3.38989 0.876999ZM13 1.75C14.41 1.75 15.43 1.74999 16.22 1.81599C16.8108 1.83497 17.392 1.97094 17.9299 2.216L18.6101 0.880005C17.9012 0.546223 17.1329 0.357202 16.3501 0.324005C15.4701 0.252005 14.39 0.253006 13 0.253006V1.75ZM21.75 9C21.75 7.612 21.7499 6.526 21.6799 5.655C21.6486 4.86986 21.4583 4.09927 21.1201 3.39L19.79 4.071C20.0332 4.60773 20.1657 5.18792 20.1799 5.77699C20.2499 6.57699 20.25 7.587 20.25 9H21.75ZM17.9299 2.213C18.7299 2.62136 19.3808 3.2715 19.79 4.071L21.1201 3.39C20.5698 2.30832 19.6911 1.42863 18.6101 0.876999L17.9299 2.213ZM7 11.75H15V10.25H7V11.75ZM9 7.75H13V6.25H9V7.75Z" fill="black"/>
</svg>
