<svg width="22" height="22" viewBox="0 0 22 22" fill="none" xmlns="http://www.w3.org/2000/svg">
<path d="M10 17.75C10 17.9489 10.0791 18.1396 10.2197 18.2803C10.3604 18.4209 10.5511 18.5 10.75 18.5C10.9489 18.5 11.1396 18.4209 11.2803 18.2803C11.4209 18.1396 11.5 17.9489 11.5 17.75H10ZM11.5 3.75C11.5 3.55109 11.4209 3.36038 11.2803 3.21973C11.1396 3.07908 10.9489 3 10.75 3C10.5511 3 10.3604 3.07908 10.2197 3.21973C10.0791 3.36038 10 3.55109 10 3.75H11.5ZM13.1899 7.19995C13.2883 7.37213 13.4509 7.49829 13.6421 7.55078C13.8333 7.60327 14.0375 7.57782 14.21 7.47998C14.3818 7.37881 14.5075 7.21443 14.5598 7.02197C14.6121 6.82952 14.587 6.62421 14.49 6.44995L13.1899 7.19995ZM8.31006 14.3C8.21173 14.1279 8.04911 14.0017 7.85791 13.9492C7.66671 13.8967 7.4625 13.9222 7.29004 14.02C7.11816 14.1212 6.99251 14.2856 6.94019 14.478C6.88787 14.6705 6.91301 14.8758 7.01001 15.05L8.31006 14.3ZM20 10.75C20.0003 11.9648 19.7612 13.1678 19.2964 14.2902C18.8316 15.4125 18.1503 16.4324 17.2913 17.2914C16.4323 18.1504 15.4124 18.8316 14.29 19.2964C13.1677 19.7612 11.9648 20.0003 10.75 20V21.5C12.1619 21.5005 13.56 21.2228 14.8645 20.6827C16.169 20.1427 17.3542 19.3509 18.3525 18.3525C19.3509 17.3542 20.1428 16.169 20.6829 14.8645C21.2229 13.56 21.5005 12.1619 21.5 10.75H20ZM10.75 20C9.5352 20.0003 8.33234 19.7612 7.20996 19.2964C6.08758 18.8316 5.06774 18.1504 4.20874 17.2914C3.34975 16.4324 2.66838 15.4125 2.20361 14.2902C1.73885 13.1678 1.49974 11.9648 1.5 10.75H7.45039e-07C-0.000524891 12.1619 0.277088 13.56 0.817139 14.8645C1.35719 16.169 2.14913 17.3542 3.14746 18.3525C4.1458 19.3509 5.33101 20.1427 6.6355 20.6827C7.93999 21.2228 9.33814 21.5005 10.75 21.5V20ZM1.5 10.75C1.49974 9.5352 1.73885 8.33222 2.20361 7.20984C2.66838 6.08746 3.34975 5.06761 4.20874 4.20862C5.06774 3.34962 6.08758 2.66838 7.20996 2.20361C8.33234 1.73885 9.5352 1.49974 10.75 1.5V7.44712e-07C9.33814 -0.000524891 7.93999 0.27721 6.6355 0.817261C5.33101 1.35731 4.1458 2.14913 3.14746 3.14746C2.14913 4.1458 1.35719 5.33101 0.817139 6.6355C0.277088 7.93999 -0.000524891 9.33814 7.45039e-07 10.75H1.5ZM10.75 1.5C11.9648 1.49974 13.1677 1.73885 14.29 2.20361C15.4124 2.66838 16.4323 3.34962 17.2913 4.20862C18.1503 5.06761 18.8316 6.08746 19.2964 7.20984C19.7612 8.33222 20.0003 9.5352 20 10.75H21.5C21.5005 9.33814 21.2229 7.93999 20.6829 6.6355C20.1428 5.33101 19.3509 4.1458 18.3525 3.14746C17.3542 2.14913 16.169 1.35731 14.8645 0.817261C13.56 0.27721 12.1619 -0.000524891 10.75 7.44712e-07V1.5ZM14.49 6.44995L14.1101 5.80005L12.8101 6.55005L13.1899 7.19995L14.49 6.44995ZM8.68994 14.95L8.31006 14.3L7.01001 15.05L7.38989 15.7L8.68994 14.95ZM11.3601 11.77C11.7541 11.9156 12.0985 12.1705 12.353 12.5046C12.6075 12.8388 12.7615 13.2384 12.7971 13.657C12.8328 14.0755 12.7485 14.4956 12.5542 14.868C12.3599 15.2405 12.0636 15.5498 11.7 15.76L12.45 17.0601C13.0604 16.7081 13.558 16.1895 13.8843 15.5649C14.2105 14.9404 14.3521 14.2359 14.2922 13.5338C14.2324 12.8317 13.9736 12.1612 13.5464 11.6008C13.1192 11.0405 12.5411 10.6136 11.8799 10.37L11.3601 11.77ZM9.05005 4.43994C8.43961 4.79186 7.94199 5.31053 7.61572 5.93506C7.28946 6.55959 7.14795 7.26411 7.20776 7.96619C7.26758 8.66826 7.5264 9.33884 7.95361 9.89917C8.38083 10.4595 8.95894 10.8864 9.62012 11.13L10.1399 9.72998C9.74589 9.58436 9.40148 9.32953 9.14697 8.99536C8.89246 8.66119 8.73855 8.26155 8.70288 7.84302C8.66722 7.42448 8.7515 7.00437 8.9458 6.63196C9.1401 6.25954 9.43636 5.95017 9.80005 5.73999L9.05005 4.43994ZM11.5 17.75V16.8H10V17.75H11.5ZM11.5 16.8V10.75H10V16.8H11.5ZM11.7 15.76C11.3973 15.933 11.0581 16.0324 10.71 16.05L10.79 17.55C11.3743 17.52 11.943 17.3521 12.45 17.0601L11.7 15.76ZM10.71 16.05C10.3047 16.0701 9.90178 15.978 9.54541 15.7839C9.18904 15.5899 8.89298 15.3013 8.68994 14.95L7.38989 15.7C7.72996 16.2927 8.22786 16.7795 8.82813 17.1061C9.42839 17.4327 10.1076 17.5865 10.79 17.55L10.71 16.05ZM9.62012 11.13L10.49 11.45L11.01 10.05L10.1399 9.72998L9.62012 11.13ZM10.49 11.45L11.3601 11.77L11.8799 10.37L11.01 10.05L10.49 11.45ZM11.5 10.75V4.69995H10V10.75H11.5ZM11.5 4.69995V3.75H10V4.69995H11.5ZM14.1101 5.80005C13.77 5.2073 13.2721 4.72054 12.6719 4.39392C12.0716 4.06731 11.3924 3.91355 10.71 3.94995L10.79 5.44995C11.1953 5.42988 11.5982 5.522 11.9546 5.71607C12.311 5.91013 12.607 6.19872 12.8101 6.55005L14.1101 5.80005ZM10.71 3.94995C10.1257 3.98005 9.55698 4.14795 9.05005 4.43994L9.80005 5.73999C10.1027 5.56696 10.4419 5.46758 10.79 5.44995L10.71 3.94995Z" fill="#2D264B"/>
</svg>
