<svg width="19" height="22" viewBox="0 0 19 22" fill="none" xmlns="http://www.w3.org/2000/svg">
<path d="M9.27079 11.3888C13.2708 18.3168 20.7858 16.2888 16.0028 19.0488C14.8651 19.7158 13.6067 20.1511 12.3 20.3298C10.9934 20.5084 9.66432 20.4268 8.38933 20.0898C7.11433 19.7527 5.91857 19.1667 4.87095 18.3656C3.82334 17.5646 2.94455 16.5642 2.28514 15.4221C1.62572 14.28 1.19872 13.0187 1.02873 11.7109C0.858743 10.4031 0.949122 9.07459 1.29466 7.80186C1.6402 6.52913 2.23408 5.33736 3.0421 4.29508C3.85011 3.2528 4.85633 2.38062 6.00279 1.7288C10.7858 -1.0332 5.27079 4.46077 9.27079 11.3888Z" stroke="black" stroke-width="1.5"/>
</svg>
