<svg width="22" height="22" viewBox="0 0 22 22" fill="none" xmlns="http://www.w3.org/2000/svg">
<path d="M9.00061 15.0001V7.00006M13.0006 15.0001V7.00006M1.47461 11.0001C1.47461 8.45006 1.47461 7.18004 2.02561 6.10004C2.10076 5.95573 2.18355 5.81561 2.27361 5.68011C2.92861 4.66011 4.03161 4.02006 6.23761 2.75006C8.44361 1.48006 9.54661 0.84009 10.7526 0.78009C10.9191 0.769918 11.0861 0.769918 11.2526 0.78009C12.4586 0.84009 13.5616 1.48006 15.7676 2.75006C17.9736 4.02006 19.0766 4.66011 19.7316 5.68011C19.8217 5.81561 19.9045 5.95573 19.9796 6.10004C20.5306 7.18004 20.5306 8.45006 20.5306 11.0001C20.5306 13.5501 20.5306 14.8201 19.9796 15.9001C19.9045 16.0444 19.8217 16.1845 19.7316 16.32C19.0766 17.34 17.9736 17.9801 15.7676 19.2501C13.5616 20.5201 12.4586 21.16 11.2526 21.22C11.0861 21.2302 10.9191 21.2302 10.7526 21.22C9.54661 21.16 8.44361 20.5201 6.23761 19.2501C4.03161 17.9801 2.92861 17.34 2.27361 16.32C2.18355 16.1845 2.10076 16.0444 2.02561 15.9001C1.47461 14.8201 1.47461 13.5501 1.47461 11.0001Z" stroke="#FF0000" stroke-width="1.5" stroke-linecap="round"/>
</svg>
