<svg width="25" height="24" viewBox="0 0 25 24" xmlns="http://www.w3.org/2000/svg">
<path d="M11.15 19.1098V4.88976C11.15 3.53976 10.58 2.99976 9.14 2.99976H5.51C4.07 2.99976 3.5 3.53976 3.5 4.88976V19.1098C3.5 20.4598 4.07 20.9998 5.51 20.9998H9.14C10.58 20.9998 11.15 20.4598 11.15 19.1098Z" fill="#fa8c16"/>
<path d="M21.4996 19.1098V4.88976C21.4996 3.53976 20.9296 2.99976 19.4896 2.99976H15.8596C14.4296 2.99976 13.8496 3.53976 13.8496 4.88976V19.1098C13.8496 20.4598 14.4196 20.9998 15.8596 20.9998H19.4896C20.9296 20.9998 21.4996 20.4598 21.4996 19.1098Z" fill="#fa8c16"/>
</svg>
