<svg width="22" height="22" viewBox="0 0 22 22" fill="none" xmlns="http://www.w3.org/2000/svg">
<path d="M6.23761 2.75006C8.44361 1.48006 9.54662 0.84009 10.7526 0.78009C10.9191 0.769918 11.0861 0.769918 11.2526 0.78009C12.4586 0.84009 13.5616 1.48006 15.7676 2.75006C17.9736 4.02006 19.0766 4.66011 19.7316 5.68011C19.8216 5.81565 19.9044 5.95577 19.9796 6.10004C20.5306 7.18004 20.5306 8.45006 20.5306 11.0001C20.5306 13.5501 20.5306 14.8201 19.9796 15.9001C19.9044 16.0444 19.8216 16.1845 19.7316 16.32C19.0766 17.34 17.9736 17.9801 15.7676 19.2501C13.5616 20.5201 12.4586 21.16 11.2526 21.22C11.0861 21.2302 10.9191 21.2302 10.7526 21.22C9.54662 21.16 8.44361 20.5201 6.23761 19.2501C4.03161 17.9801 2.92862 17.34 2.27362 16.32C2.18323 16.1847 2.10045 16.0446 2.02563 15.9001C1.47463 14.8201 1.47461 13.5501 1.47461 11.0001C1.47461 8.45006 1.47463 7.18004 2.02563 6.10004C2.10045 5.95555 2.18323 5.81541 2.27362 5.68011C2.92862 4.66011 4.03161 4.02006 6.23761 2.75006Z" stroke="#31940F" stroke-width="1.5"/>
<path d="M12.4201 8.28004C13.8711 9.17004 14.5961 9.61996 14.8401 10.2C15.052 10.7122 15.052 11.2878 14.8401 11.8001C14.5961 12.3801 13.8711 12.83 12.4201 13.72C10.9691 14.61 10.2441 15.06 9.64807 14.99C9.38538 14.9622 9.13225 14.876 8.90729 14.7376C8.68232 14.5991 8.49125 14.4119 8.34808 14.19C7.99608 13.68 7.99609 12.79 7.99609 11C7.99609 9.21001 7.99608 8.32007 8.34808 7.81007C8.49292 7.58962 8.68441 7.40364 8.90906 7.26539C9.1337 7.12715 9.386 7.03997 9.64807 7.01002C10.2441 6.94002 10.9691 7.39004 12.4201 8.28004Z" stroke="#31940F" stroke-width="1.5"/>
</svg>
