<svg width="15" height="14" viewBox="0 0 15 14" fill="none" xmlns="http://www.w3.org/2000/svg">
<path d="M14.503 0.75C14.503 0.551088 14.424 0.360379 14.2833 0.219727C14.1427 0.0790743 13.9519 0 13.753 0C13.5541 0 13.3633 0.0790743 13.2227 0.219727C13.082 0.360379 13.003 0.551088 13.003 0.75H14.503ZM13.003 12.75C13.003 12.9489 13.082 13.1396 13.2227 13.2803C13.3633 13.4209 13.5541 13.5 13.753 13.5C13.9519 13.5 14.1427 13.4209 14.2833 13.2803C14.424 13.1396 14.503 12.9489 14.503 12.75H13.003ZM1.50299 6.75C1.50299 5.4 1.50297 4.42996 1.56897 3.70996C1.57004 3.24755 1.68955 2.79317 1.91602 2.39001L0.695007 1.52002C0.310803 2.13655 0.0968772 2.84383 0.0750122 3.56995C0.00201221 4.37995 0.00299072 5.43 0.00299072 6.75H1.50299ZM8.08002 2.02002C6.95302 1.36002 6.06297 0.84 5.33698 0.5C4.70414 0.15019 3.9875 -0.0192853 3.26501 0.0100098L3.42499 1.51001C3.87259 1.50847 4.31261 1.62576 4.70001 1.84998C5.34801 2.15998 6.16801 2.63995 7.32001 3.31995L8.08002 2.02002ZM1.91602 2.39001C2.09077 2.14473 2.3157 1.93944 2.57587 1.78772C2.83603 1.636 3.12545 1.54132 3.42499 1.51001L3.26501 0.0100098C2.75418 0.0655262 2.26096 0.228835 1.81793 0.489136C1.3749 0.749437 0.992152 1.10081 0.695007 1.52002L1.91602 2.39001ZM7.31598 10.1801C6.16398 10.8601 5.34398 11.34 4.69598 11.65C4.30858 11.8742 3.86863 11.9915 3.42102 11.99L3.26099 13.49C3.98347 13.5193 4.70017 13.3498 5.33301 13C6.05901 12.66 6.94899 12.14 8.07599 11.48L7.31598 10.1801ZM0 6.75C0 8.07 2.14875e-05 9.12005 0.0720215 9.93005C0.0938865 10.6562 0.307812 11.3634 0.692017 11.98L1.91302 11.11C1.68656 10.7068 1.56705 10.2524 1.56598 9.79004C1.50098 9.07004 1.5 8.1 1.5 6.75H0ZM3.42102 11.99C3.12148 11.9587 2.83304 11.864 2.57288 11.7123C2.31271 11.5606 2.08778 11.3553 1.91302 11.11L0.692017 11.98C0.989161 12.3992 1.37185 12.7506 1.81488 13.0109C2.25791 13.2712 2.75119 13.4345 3.26202 13.49L3.42102 11.99ZM8.07703 11.48C9.20403 10.82 10.095 10.2899 10.748 9.81995C11.3611 9.43677 11.8586 8.89413 12.187 8.25L10.813 7.65002C10.5893 8.04727 10.2647 8.37838 9.87201 8.60999C9.28901 9.02999 8.47202 9.51005 7.31702 10.1801L8.07703 11.48ZM7.31702 3.31995C8.47002 3.98995 9.28901 4.47001 9.87201 4.89001C10.2647 5.12162 10.5893 5.45273 10.813 5.84998L12.187 5.25C11.8586 4.60587 11.3611 4.06323 10.748 3.68005C10.095 3.21005 9.20403 2.68002 8.07703 2.02002L7.31702 3.31995ZM12.187 8.25C12.3933 7.77682 12.4997 7.26618 12.4997 6.75C12.4997 6.23382 12.3933 5.72318 12.187 5.25L10.813 5.84998C10.9362 6.13403 10.9998 6.44038 10.9998 6.75C10.9998 7.05962 10.9362 7.36597 10.813 7.65002L12.187 8.25ZM13 0.75V12.75H14.5V0.75H13Z" fill="#2D264B"/>
</svg>
