<svg width="19" height="22" viewBox="0 0 19 22" fill="none" xmlns="http://www.w3.org/2000/svg">
<path d="M17.0232 9.03111L17.6022 9.5081L17.6422 9.46013L17.6732 9.40611L17.0232 9.03111ZM3.84916 20.3481C3.79991 20.4335 3.76797 20.5277 3.75513 20.6254C3.7423 20.7231 3.74884 20.8224 3.77438 20.9176C3.79991 21.0128 3.84395 21.1019 3.90396 21.1801C3.96398 21.2583 4.0388 21.3238 4.12416 21.3731C4.20952 21.4223 4.30374 21.4543 4.40145 21.4671C4.49916 21.48 4.59844 21.4735 4.69362 21.4479C4.7888 21.4224 4.87801 21.3783 4.95618 21.3183C5.03434 21.2583 5.09992 21.1835 5.14916 21.0981L3.84916 20.3481ZM11.6492 6.08812L13.5982 7.21312L14.3482 5.91313L12.3992 4.78911L11.6492 6.08812ZM2.04916 9.20812L1.94216 9.1461C1.92016 9.1331 1.91716 9.13013 1.92016 9.13213L1.04616 10.3521C1.12316 10.4071 1.21416 10.4581 1.29916 10.5071L2.04916 9.20812ZM0.613159 7.94609C0.564159 8.03109 0.51316 8.12008 0.47216 8.20708L1.83816 8.8261L1.85016 8.80309L1.91116 8.69609L0.613159 7.94609ZM1.92016 9.13213C1.8731 9.09857 1.83918 9.04965 1.82422 8.99382C1.80926 8.93799 1.81419 8.87869 1.83816 8.8261L0.47216 8.20708C0.30522 8.57596 0.271283 8.99134 0.376122 9.38243C0.48096 9.77352 0.71709 10.1162 1.04616 10.3521L1.92016 9.13213ZM16.2012 16.9461C16.1712 16.9981 16.1532 17.0301 16.1392 17.0531C16.1252 17.0761 16.1232 17.0781 16.1262 17.0751L17.3452 17.9481C17.4002 17.8711 17.4512 17.7811 17.5002 17.6961L16.2012 16.9461ZM14.9392 18.3821C15.0242 18.4311 15.1132 18.4821 15.2002 18.5231L15.8192 17.1571L15.7962 17.1451L15.6892 17.0831L14.9392 18.3821ZM16.1262 17.0751C16.0925 17.122 16.0426 17.1558 15.9868 17.1708C15.931 17.1857 15.8718 17.1809 15.8192 17.1571L15.2002 18.5231C15.569 18.6904 15.9844 18.7246 16.3756 18.6197C16.7668 18.5149 17.1095 18.2775 17.3452 17.9481L16.1262 17.0751ZM13.5982 7.21312C14.3172 7.62812 14.6302 7.81308 14.8722 7.98308L15.7462 6.76408C15.4292 6.53608 15.0372 6.31111 14.3462 5.91411L13.5982 7.21312ZM17.5052 17.7001C17.9052 17.0121 18.1292 16.6211 18.2902 16.2661L16.9242 15.6471C16.8012 15.9181 16.6242 16.2311 16.2062 16.9471L17.5052 17.7001ZM12.3992 4.78911C11.7112 4.38911 11.3202 4.16514 10.9652 4.00414L10.3462 5.3701C10.6172 5.4931 10.9302 5.67012 11.6462 6.08812L12.3992 4.78911ZM1.91616 8.70012C2.33116 7.98112 2.51616 7.66911 2.68616 7.42711L1.46716 6.55309C1.24016 6.87009 1.01516 7.26211 0.617157 7.95311L1.91616 8.70012ZM15.1232 2.32408C15.6066 2.60311 16.0303 2.97467 16.3702 3.41747C16.71 3.86027 16.9593 4.36568 17.1038 4.90483C17.2483 5.44398 17.2851 6.00628 17.2123 6.55968C17.1394 7.11308 16.9583 7.64673 16.6792 8.13011L17.9792 8.88011C18.7419 7.5599 18.9491 5.99084 18.5553 4.51787C18.1616 3.0449 17.1989 1.7886 15.8792 1.02513L15.1232 2.32408ZM9.31716 3.88011C9.59619 3.39668 9.96771 2.97294 10.4105 2.6331C10.8533 2.29327 11.3587 2.04401 11.8979 1.89952C12.437 1.75503 12.9993 1.71815 13.5527 1.791C14.1061 1.86385 14.6398 2.04498 15.1232 2.32408L15.8732 1.02409C14.553 0.261098 12.9839 0.0537426 11.5108 0.447556C10.0378 0.84137 8.78143 1.80414 8.01816 3.12413L9.31716 3.88011ZM16.6792 8.13011L16.3722 8.66008L17.6722 9.41008L17.9782 8.88011L16.6792 8.13011ZM7.84916 13.4201L3.84916 20.3481L5.14916 21.0981L9.14916 14.1701L7.84916 13.4201ZM8.98016 4.46013L9.31716 3.87608L8.01716 3.12608L7.68016 3.71013L8.98016 4.46013ZM10.9652 4.00011C10.1519 3.63137 9.28114 3.40574 8.39116 3.33312L8.27016 4.83312C8.98797 4.89094 9.69034 5.07261 10.3462 5.3701L10.9652 4.00011ZM8.39116 3.33312C7.05802 3.22591 5.71983 3.46536 4.50658 4.02818C3.29333 4.591 2.24628 5.45802 1.46716 6.54509L2.68616 7.41911C3.31424 6.54218 4.15862 5.84277 5.13715 5.3889C6.11567 4.93504 7.19502 4.74215 8.27016 4.82909L8.39116 3.33312ZM14.8712 7.97911C15.4548 8.39579 15.9622 8.91001 16.3712 9.49913L17.6042 8.64513C17.0981 7.91473 16.4699 7.27705 15.7472 6.76012L14.8712 7.97911ZM16.3712 9.49913C16.9864 10.3873 17.361 11.4199 17.4582 12.496C17.5555 13.5721 17.3722 14.655 16.9262 15.6391L18.2922 16.2581C18.8452 15.0379 19.0725 13.6951 18.9519 12.3609C18.8313 11.0266 18.367 9.74644 17.6042 8.64513L16.3712 9.49913ZM16.4462 8.54912L16.4092 8.5941L17.5662 9.54912L17.6032 9.50414L16.4462 8.54912ZM15.6962 17.0791L8.87616 13.1421L8.12616 14.4421L14.9462 18.3791L15.6962 17.0791ZM8.87616 13.1421L8.84516 13.1241L8.09516 14.4241L8.12616 14.4421L8.87616 13.1421ZM8.84516 13.1241L2.05616 9.20409L1.30616 10.5041L8.09516 14.4241L8.84516 13.1241Z" fill="black"/>
</svg>
