<svg width="22" height="22" viewBox="0 0 22 22" fill="none" xmlns="http://www.w3.org/2000/svg">
<path d="M8 8L8.33503 6.99399C8.46397 6.60622 8.67739 6.25195 8.95997 5.95676C9.24254 5.66156 9.58718 5.43281 9.96894 5.28705C10.3507 5.14129 10.7601 5.08216 11.1675 5.11392C11.5749 5.14568 11.9701 5.26755 12.3247 5.4707C12.6793 5.67386 12.9842 5.95325 13.2177 6.28867C13.4511 6.62408 13.6071 7.00716 13.6744 7.41022C13.7417 7.81328 13.7186 8.22624 13.6068 8.61929C13.495 9.01235 13.2973 9.37569 13.028 9.68301L12.109 10.733C11.3942 11.5495 11.0001 12.5978 11 13.683V14M21 11C21 12.9778 20.4135 14.9112 19.3147 16.5557C18.2159 18.2002 16.6541 19.4819 14.8268 20.2388C12.9996 20.9957 10.9889 21.1937 9.04908 20.8079C7.10927 20.422 5.32748 19.4696 3.92896 18.0711C2.53043 16.6726 1.578 14.8907 1.19214 12.9509C0.806291 11.0111 1.00436 9.00042 1.76123 7.17316C2.51811 5.3459 3.79979 3.78412 5.44428 2.6853C7.08877 1.58649 9.02219 1 11 1C13.6522 1 16.1957 2.05356 18.071 3.92892C19.9464 5.80429 21 8.34784 21 11Z" stroke="black" stroke-width="1.5" stroke-linecap="round"/>
</svg>
