<svg width="22" height="24" viewBox="0 0 22 24" fill="none" xmlns="http://www.w3.org/2000/svg">
<path d="M1.75 12.0001C1.75 11.8012 1.67093 11.6104 1.53027 11.4697C1.38962 11.3291 1.19891 11.2501 1 11.2501C0.801088 11.2501 0.610379 11.3291 0.469727 11.4697C0.329074 11.6104 0.25 11.8012 0.25 12.0001H1.75ZM20.25 12.0001C20.25 12.199 20.3291 12.3897 20.4697 12.5304C20.6104 12.6711 20.8011 12.7501 21 12.7501C21.1989 12.7501 21.3896 12.6711 21.5303 12.5304C21.6709 12.3897 21.75 12.199 21.75 12.0001H20.25ZM3.3999 5.50007L3.93994 6.02006L3.95996 6.00507L3.96997 5.98807L3.3999 5.50007ZM18.6001 18.5001L19.1699 18.9881L19.1799 18.9771L19.1899 18.9661L18.6001 18.5001ZM3.01001 1.00007C3.0104 0.901576 2.99143 0.803981 2.9541 0.712836C2.91677 0.621691 2.86185 0.53877 2.79248 0.468848C2.72312 0.398925 2.64065 0.343359 2.5498 0.305304C2.45896 0.267249 2.36143 0.24747 2.26294 0.247076C2.16445 0.246682 2.06698 0.265688 1.97583 0.303015C1.88469 0.340342 1.80161 0.39524 1.73169 0.464606C1.66177 0.533971 1.60641 0.616438 1.56836 0.707281C1.5303 0.798125 1.5104 0.895564 1.51001 0.994055L3.01001 1.00007ZM7.91992 7.40406C8.11883 7.40406 8.30979 7.32505 8.45044 7.18439C8.59109 7.04374 8.66992 6.85297 8.66992 6.65406C8.66992 6.45515 8.59109 6.26438 8.45044 6.12372C8.30979 5.98307 8.11883 5.90406 7.91992 5.90406V7.40406ZM18.9099 22.9171C18.9095 23.0156 18.9286 23.1132 18.9658 23.2044C19.0031 23.2955 19.0579 23.3785 19.1272 23.4484C19.1965 23.5184 19.2791 23.574 19.3699 23.6121C19.4607 23.6502 19.558 23.6701 19.6565 23.6706C19.755 23.671 19.8527 23.6521 19.9438 23.6148C20.035 23.5775 20.1178 23.5227 20.1877 23.4534C20.2577 23.3841 20.3134 23.3016 20.3516 23.2108C20.3897 23.12 20.4095 23.0226 20.4099 22.9241L18.9099 22.9171ZM14 16.5141C13.8011 16.5141 13.6104 16.5931 13.4697 16.7337C13.3291 16.8744 13.25 17.0652 13.25 17.2641C13.25 17.463 13.3291 17.6538 13.4697 17.7944C13.6104 17.9351 13.8011 18.0141 14 18.0141V16.5141ZM11 21.2501C9.78524 21.2502 8.58228 21.011 7.45996 20.5462C6.33764 20.0814 5.31795 19.4001 4.45898 18.5411C3.60002 17.6821 2.91867 16.6624 2.45386 15.54C1.98905 14.4177 1.74987 13.2148 1.75 12.0001H0.25C0.249737 13.4119 0.527726 14.8099 1.06787 16.1142C1.60802 17.4186 2.39967 18.6038 3.39795 19.6021C4.39623 20.6003 5.58137 21.3922 6.88574 21.9323C8.19011 22.4725 9.58822 22.7503 11 22.7501V21.2501ZM11 2.75007C12.2148 2.74994 13.4177 2.98911 14.54 3.45392C15.6624 3.91873 16.682 4.60008 17.541 5.45905C18.4 6.31802 19.0813 7.33777 19.5461 8.46009C20.011 9.58241 20.2501 10.7853 20.25 12.0001H21.75C21.7503 10.5883 21.4723 9.19027 20.9321 7.8859C20.392 6.58153 19.6003 5.39636 18.6021 4.39808C17.6038 3.3998 16.4186 2.60796 15.1143 2.06782C13.8099 1.52767 12.4118 1.2498 11 1.25007V2.75007ZM3.96997 5.98807C4.83776 4.97193 5.91568 4.15618 7.12939 3.59714C8.34311 3.03811 9.66373 2.74911 11 2.75007V1.25007C9.44707 1.2485 7.91228 1.58407 6.50171 2.23359C5.09114 2.88311 3.83849 3.83109 2.83008 5.01206L3.96997 5.98807ZM18.03 18.0121C17.1622 19.0282 16.0843 19.844 14.8706 20.403C13.6569 20.962 12.3363 21.251 11 21.2501V22.7501C12.5529 22.7516 14.0877 22.4161 15.4983 21.7665C16.9089 21.117 18.1615 20.169 19.1699 18.9881L18.03 18.0121ZM1.51001 1.00007L1.5 2.98505L3 2.99207L3.01001 1.00608L1.51001 1.00007ZM5.93994 7.41907L7.91992 7.41007V5.91007L5.92993 5.91907L5.93994 7.41907ZM1.5 2.98505C1.5 3.76005 1.50005 4.40407 1.55005 4.91907C1.58349 5.44048 1.76379 5.94177 2.07007 6.36506L3.26001 5.44706C3.12525 5.24137 3.04921 5.00279 3.04004 4.75706C3.00004 4.34506 3 3.80107 3 2.99207L1.5 2.98505ZM5.92993 5.91907C5.34297 5.93512 4.75555 5.92176 4.16992 5.87907C3.92428 5.87651 3.68468 5.80287 3.47998 5.66706L2.56006 6.85306C2.98084 7.15938 3.48048 7.33878 4 7.37006C4.64541 7.41949 5.29286 7.43585 5.93994 7.41907L5.92993 5.91907ZM20.4099 22.9261L20.4199 20.9401L18.9199 20.9341L18.9099 22.9191L20.4099 22.9261ZM15.98 16.5071L14 16.5161V18.0161L15.99 18.0071L15.98 16.5071ZM20.4199 20.9401C20.4199 20.1661 20.4201 19.5221 20.3701 19.0061C20.3365 18.485 20.1563 17.9841 19.8501 17.5611L18.6599 18.4791C18.795 18.6846 18.8711 18.9233 18.8799 19.1691C18.9199 19.5801 18.9199 20.1241 18.9199 20.9341L20.4199 20.9401ZM15.99 18.0001C16.577 17.9835 17.1644 17.9968 17.75 18.0401C17.9958 18.0416 18.2357 18.1153 18.4399 18.2521L19.3601 17.0651C18.9392 16.7591 18.4393 16.5801 17.9199 16.5491C17.2746 16.4986 16.6271 16.4823 15.98 16.5001L15.99 18.0001ZM2.07007 6.35807C2.14129 6.44972 2.21809 6.53687 2.30005 6.61906L3.36011 5.55808C3.32297 5.52214 3.28937 5.4826 3.26001 5.44007L2.07007 6.35807ZM2.30005 6.61906C2.38168 6.70031 2.46854 6.77615 2.56006 6.84608L3.47998 5.66007C3.43702 5.63046 3.39698 5.59699 3.36011 5.56006L2.30005 6.61906ZM2.86011 4.97608L2.29004 5.56806L3.37012 6.60908L3.93994 6.01606L2.86011 4.97608ZM19.8501 17.5541C19.7883 17.4739 19.7213 17.3978 19.6499 17.3261L18.5701 18.3691C18.606 18.3966 18.6363 18.4305 18.6599 18.4691L19.8501 17.5541ZM19.6499 17.3261C19.5591 17.2328 19.4624 17.1456 19.3601 17.0651L18.4399 18.2521C18.4869 18.2868 18.5306 18.326 18.5701 18.3691L19.6499 17.3261ZM19.1899 18.9621L19.7 18.3131L18.53 17.3811L18.01 18.0301L19.1899 18.9621Z" fill="#2D264B"/>
</svg>
