<svg width="22" height="23" viewBox="0 0 22 23" fill="none" xmlns="http://www.w3.org/2000/svg">
<path d="M20.4098 1C20.4098 0.801088 20.331 0.610379 20.1903 0.469727C20.0497 0.329074 19.8587 0.25 19.6598 0.25C19.4609 0.25 19.2702 0.329074 19.1295 0.469727C18.9889 0.610379 18.9098 0.801088 18.9098 1L18.9198 2.98999C18.9198 3.75999 18.9198 4.28994 18.8798 4.68994C18.4442 4.21646 17.9655 3.78455 17.4499 3.3999C15.5125 1.94691 13.1414 1.19074 10.7206 1.25366C8.29977 1.31658 5.97118 2.19492 4.11196 3.74658C2.25274 5.29825 0.971906 7.43221 0.47695 9.80273C-0.0180065 12.1733 0.301915 14.6416 1.38491 16.8076C2.4679 18.9736 4.25035 20.7105 6.44375 21.7368C8.63714 22.7632 11.1128 23.0188 13.4696 22.4624C15.8265 21.906 17.9265 20.5703 19.4293 18.6714C20.9322 16.7725 21.7499 14.4216 21.7499 12C21.7499 11.8011 21.6708 11.6104 21.5302 11.4697C21.3895 11.3291 21.1988 11.25 20.9999 11.25C20.801 11.25 20.6103 11.3291 20.4696 11.4697C20.329 11.6104 20.2499 11.8011 20.2499 12C20.2499 14.0837 19.5465 16.1065 18.2533 17.7405C16.9602 19.3744 15.1531 20.5237 13.1251 21.0024C11.0971 21.4812 8.96683 21.2613 7.07949 20.3782C5.19215 19.495 3.65834 18.0005 2.72646 16.1367C1.79458 14.273 1.51932 12.1491 1.94521 10.1094C2.3711 8.06962 3.4731 6.23335 5.0729 4.89819C6.67269 3.56304 8.67662 2.80731 10.7597 2.75317C12.8427 2.69903 14.883 3.34985 16.5499 4.6001C17.0452 4.96871 17.5008 5.38761 17.9098 5.8501C17.8598 5.8601 17.8099 5.86988 17.7499 5.87988C17.3399 5.91988 16.7999 5.91992 15.9899 5.91992L13.9999 5.90991C13.8025 5.90911 13.6128 5.98658 13.4723 6.12524C13.3318 6.26391 13.2517 6.45248 13.2499 6.6499C13.2491 6.84998 13.3276 7.0424 13.4682 7.18481C13.6087 7.32723 13.7998 7.40806 13.9999 7.40991L16.0299 7.41992C16.7799 7.41992 17.4098 7.42012 17.9198 7.37012C18.4395 7.33713 18.9392 7.15674 19.36 6.8501C19.5427 6.7074 19.7073 6.54285 19.85 6.36011C20.1566 5.93927 20.337 5.43958 20.37 4.91992C20.42 4.40992 20.4198 3.78003 20.4198 3.03003L20.4098 1Z" fill="black"/>
</svg>
