<svg width="24" height="22" viewBox="0 0 24 22" fill="none" xmlns="http://www.w3.org/2000/svg">
<path d="M7.81799 20.272C7.72239 20.2959 7.63243 20.3384 7.55325 20.3971C7.47407 20.4557 7.40724 20.5294 7.35654 20.6139C7.30584 20.6984 7.27229 20.7921 7.25778 20.8896C7.24328 20.987 7.2481 21.0864 7.272 21.182C7.2959 21.2776 7.3384 21.3676 7.39706 21.4467C7.45573 21.5259 7.52942 21.5928 7.61392 21.6435C7.69842 21.6942 7.79209 21.7277 7.88956 21.7422C7.98703 21.7567 8.0864 21.7519 8.18201 21.728L7.81799 20.272ZM15.818 21.728C16.0111 21.7763 16.2154 21.7459 16.3861 21.6435C16.5567 21.5411 16.6797 21.3751 16.728 21.182C16.7763 20.9889 16.7459 20.7846 16.6435 20.6139C16.5411 20.4433 16.3751 20.3203 16.182 20.272L15.818 21.728ZM12.75 17C12.75 16.8011 12.671 16.6103 12.5303 16.4697C12.3897 16.329 12.1989 16.25 12 16.25C11.8011 16.25 11.6103 16.329 11.4697 16.4697C11.329 16.6103 11.25 16.8011 11.25 17H12.75ZM9 1.75H15V0.25H9V1.75ZM15 16.25H9V17.75H15V16.25ZM9 16.25C7.587 16.25 6.57301 16.25 5.77701 16.184C5.18751 16.1646 4.60771 16.0286 4.07101 15.784L3.39001 17.12C4.10054 17.4541 4.87054 17.6431 5.655 17.676C6.526 17.748 7.612 17.747 9 17.747V16.25ZM0.25 9C0.25 10.388 0.250014 11.474 0.321014 12.345C0.353924 13.1295 0.542943 13.8995 0.877014 14.61L2.21301 13.929C1.96838 13.3923 1.83241 12.8125 1.81299 12.223C1.74799 11.423 1.74701 10.413 1.74701 9H0.25ZM4.07101 15.787C3.27117 15.3792 2.62082 14.7288 2.21301 13.929L0.877014 14.61C1.42813 15.6921 2.30788 16.5719 3.39001 17.123L4.07101 15.787ZM22.25 9C22.25 10.413 22.25 11.427 22.184 12.223C22.1646 12.8125 22.0286 13.3923 21.784 13.929L23.12 14.61C23.4541 13.8995 23.6431 13.1295 23.676 12.345C23.748 11.474 23.747 10.388 23.747 9H22.25ZM15 17.75C16.388 17.75 17.474 17.75 18.345 17.679C19.1295 17.6461 19.8995 17.4571 20.61 17.123L19.929 15.787C19.3923 16.0316 18.8125 16.1676 18.223 16.187C17.423 16.252 16.413 16.253 15 16.253V17.75ZM21.787 13.929C21.3792 14.7288 20.7288 15.3792 19.929 15.787L20.61 17.123C21.6921 16.5719 22.5719 15.6921 23.123 14.61L21.787 13.929ZM15 1.75C16.413 1.75 17.427 1.75001 18.223 1.81601C18.8125 1.83543 19.3923 1.97137 19.929 2.216L20.61 0.880005C19.8995 0.545934 19.1295 0.356915 18.345 0.324005C17.474 0.252005 16.388 0.252991 15 0.252991V1.75ZM23.75 9C23.75 7.612 23.75 6.526 23.679 5.655C23.6461 4.87054 23.4571 4.10054 23.123 3.39001L21.787 4.07101C22.0316 4.60771 22.1676 5.18751 22.187 5.77701C22.252 6.57701 22.253 7.587 22.253 9H23.75ZM19.929 2.21301C20.7288 2.62082 21.3792 3.27117 21.787 4.07101L23.123 3.39001C22.5719 2.30788 21.6921 1.42813 20.61 0.877014L19.929 2.21301ZM9 0.25C7.612 0.25 6.526 0.250014 5.655 0.321014C4.87054 0.353924 4.10054 0.542943 3.39001 0.877014L4.07101 2.21301C4.60771 1.96838 5.18751 1.83241 5.77701 1.81299C6.57701 1.74799 7.587 1.74701 9 1.74701V0.25ZM1.75 9C1.75 7.587 1.75001 6.57301 1.81601 5.77701C1.83543 5.18751 1.97137 4.60771 2.216 4.07101L0.880005 3.39001C0.545934 4.10054 0.356915 4.87054 0.324005 5.655C0.252005 6.526 0.252991 7.612 0.252991 9H1.75ZM3.39001 0.877014C2.30788 1.42813 1.42813 2.30788 0.877014 3.39001L2.21301 4.07101C2.62082 3.27117 3.27117 2.62082 4.07101 2.21301L3.39001 0.877014ZM8.18201 21.728L9.75699 21.334L9.39301 19.879L7.81799 20.272L8.18201 21.728ZM14.243 21.334L15.818 21.728L16.182 20.272L14.607 19.879L14.243 21.334ZM12.75 20V17H11.25V20H12.75ZM9.75699 21.334C10.4906 21.1507 11.2439 21.058 12 21.058V19.558C11.1211 19.558 10.2456 19.6658 9.39301 19.879L9.75699 21.334ZM12 21.058C12.7561 21.058 13.5094 21.1507 14.243 21.334L14.607 19.879C13.7544 19.6658 12.8789 19.558 12 19.558V21.058ZM11.25 20V20.308H12.75V20H11.25Z" fill="black"/>
</svg>
