<svg width="22" height="24" viewBox="0 0 22 24" fill="none" xmlns="http://www.w3.org/2000/svg">
<path d="M4.75051 6.11417C5.64472 6.33829 6.59102 6.20588 7.38937 5.74493C8.18772 5.28399 8.77555 4.53064 9.02853 3.64417L7.58651 3.23216C7.44048 3.74426 7.101 4.17949 6.63986 4.4458C6.17871 4.71211 5.63205 4.78863 5.11551 4.65916L4.75051 6.11417ZM2.77853 9.53017C2.46851 9.20987 2.27129 8.79731 2.2167 8.3549C2.16211 7.9125 2.25312 7.46436 2.47598 7.07831C2.69884 6.69226 3.0414 6.38933 3.45181 6.21536C3.86222 6.0414 4.31811 6.00587 4.75051 6.11417L5.11551 4.65916C4.36686 4.47152 3.57749 4.5329 2.86685 4.834C2.1562 5.1351 1.56298 5.65952 1.17703 6.3279C0.791081 6.99627 0.633416 7.77219 0.727871 8.53819C0.822326 9.30419 1.16378 10.0186 1.70053 10.5732L2.77853 9.53017ZM2.77853 14.4702C3.41978 13.8078 3.77829 12.9221 3.77829 12.0002C3.77829 11.0783 3.41978 10.1925 2.77853 9.53017L1.70053 10.5732C2.07089 10.9559 2.27792 11.4676 2.27792 12.0002C2.27792 12.5327 2.07089 13.0445 1.70053 13.4272L2.77853 14.4702ZM4.75051 17.8862C4.31811 17.9945 3.86222 17.9589 3.45181 17.785C3.0414 17.611 2.69884 17.3081 2.47598 16.922C2.25312 16.536 2.16211 16.0878 2.2167 15.6454C2.27129 15.203 2.46851 14.7905 2.77853 14.4702L1.70053 13.4272C1.16378 13.9818 0.822326 14.6961 0.727871 15.4621C0.633416 16.2281 0.791081 17.0041 1.17703 17.6724C1.56298 18.3408 2.1562 18.8652 2.86685 19.1663C3.57749 19.4674 4.36686 19.5288 5.11551 19.3412L4.75051 17.8862ZM9.02853 20.3562C8.77555 19.4697 8.18772 18.7163 7.38937 18.2554C6.59102 17.7945 5.64472 17.662 4.75051 17.8862L5.11551 19.3412C5.63205 19.2117 6.17871 19.2882 6.63986 19.5545C7.101 19.8208 7.44048 20.2561 7.58651 20.7682L9.02853 20.3562ZM12.9735 20.3562C12.8513 20.7851 12.5927 21.1624 12.2367 21.4311C11.8808 21.6998 11.447 21.8452 11.001 21.8452C10.555 21.8452 10.1212 21.6998 9.76529 21.4311C9.40935 21.1624 9.15073 20.7851 9.02853 20.3562L7.58651 20.7682C7.79843 21.5103 8.24636 22.1631 8.86245 22.6279C9.47855 23.0927 10.2293 23.3441 11.001 23.3441C11.7728 23.3441 12.5235 23.0927 13.1396 22.6279C13.7557 22.1631 14.2036 21.5103 14.4155 20.7682L12.9735 20.3562ZM17.2515 17.8862C16.3573 17.662 15.411 17.7945 14.6126 18.2554C13.8143 18.7163 13.2265 19.4697 12.9735 20.3562L14.4155 20.7682C14.5615 20.2561 14.9011 19.8208 15.3622 19.5545C15.8234 19.2882 16.37 19.2117 16.8865 19.3412L17.2515 17.8862ZM19.2235 14.4702C19.5336 14.7905 19.7308 15.203 19.7854 15.6454C19.84 16.0878 19.7489 16.536 19.5261 16.922C19.3032 17.3081 18.9607 17.611 18.5503 17.785C18.1399 17.9589 17.6839 17.9945 17.2515 17.8862L16.8865 19.3412C17.6351 19.5288 18.4246 19.4674 19.1352 19.1663C19.8459 18.8652 20.439 18.3408 20.825 17.6724C21.2109 17.0041 21.3687 16.2281 21.2742 15.4621C21.1797 14.6961 20.8383 13.9818 20.3015 13.4272L19.2235 14.4702ZM19.2235 9.53017C18.5823 10.1925 18.2237 11.0783 18.2237 12.0002C18.2237 12.9221 18.5823 13.8078 19.2235 14.4702L20.3015 13.4272C19.9312 13.0445 19.7241 12.5327 19.7241 12.0002C19.7241 11.4676 19.9312 10.9559 20.3015 10.5732L19.2235 9.53017ZM17.2515 6.11417C17.6839 6.00587 18.1399 6.0414 18.5503 6.21536C18.9607 6.38933 19.3032 6.69226 19.5261 7.07831C19.7489 7.46436 19.84 7.9125 19.7854 8.3549C19.7308 8.79731 19.5336 9.20987 19.2235 9.53017L20.3015 10.5732C20.8383 10.0186 21.1797 9.30419 21.2742 8.53819C21.3687 7.77219 21.2109 6.99627 20.825 6.3279C20.439 5.65952 19.8459 5.1351 19.1352 4.834C18.4246 4.5329 17.6351 4.47152 16.8865 4.65916L17.2515 6.11417ZM12.9735 3.64417C13.2265 4.53064 13.8143 5.28399 14.6126 5.74493C15.411 6.20588 16.3573 6.33829 17.2515 6.11417L16.8865 4.65916C16.37 4.78863 15.8234 4.71211 15.3622 4.4458C14.9011 4.17949 14.5615 3.74426 14.4155 3.23216L12.9735 3.64417ZM14.4155 3.23216C14.2036 2.49008 13.7557 1.83724 13.1396 1.37245C12.5235 0.907668 11.7728 0.65625 11.001 0.65625C10.2293 0.65625 9.47855 0.907668 8.86245 1.37245C8.24636 1.83724 7.79843 2.49008 7.58651 3.23216L9.02853 3.64417C9.15073 3.21527 9.40935 2.8379 9.76529 2.56921C10.1212 2.30053 10.555 2.15517 11.001 2.15517C11.447 2.15517 11.8808 2.30053 12.2367 2.56921C12.5927 2.8379 12.8513 3.21527 12.9735 3.64417L14.4155 3.23216ZM7.25051 12.0002C7.25051 12.9947 7.64558 13.9486 8.34884 14.6518C9.0521 15.3551 10.006 15.7502 11.0005 15.7502V14.2502C10.4038 14.2502 9.83147 14.0131 9.40951 13.5912C8.98755 13.1692 8.75051 12.5969 8.75051 12.0002H7.25051ZM11.0005 15.7502C11.493 15.7503 11.9807 15.6534 12.4358 15.465C12.8908 15.2766 13.3042 15.0004 13.6524 14.6521C14.0007 14.3039 14.277 13.8904 14.4654 13.4354C14.6538 12.9803 14.7506 12.4927 14.7505 12.0002H13.2505C13.2505 12.5969 13.0135 13.1692 12.5915 13.5912C12.1696 14.0131 11.5973 14.2502 11.0005 14.2502V15.7502ZM14.7505 12.0002C14.7506 11.5077 14.6538 11.02 14.4654 10.565C14.277 10.1099 14.0007 9.69647 13.6524 9.34822C13.3042 8.99997 12.8908 8.72376 12.4358 8.53535C11.9807 8.34695 11.493 8.25004 11.0005 8.25017V9.75017C11.5973 9.75017 12.1696 9.98722 12.5915 10.4092C13.0135 10.8311 13.2505 11.4034 13.2505 12.0002H14.7505ZM11.0005 8.25017C10.006 8.25017 9.0521 8.64525 8.34884 9.34851C7.64558 10.0518 7.25051 11.0056 7.25051 12.0002H8.75051C8.75051 11.4034 8.98755 10.8311 9.40951 10.4092C9.83147 9.98722 10.4038 9.75017 11.0005 9.75017V8.25017Z" fill="black"/>
</svg>
