<svg width="18" height="20" viewBox="0 0 18 20" fill="none" xmlns="http://www.w3.org/2000/svg">
<path opacity="0.4" d="M17.4098 4.95994V7.79994L4.39984 17.3399L1.76984 15.3699C1.11984 14.8799 0.589844 13.8299 0.589844 13.0199V4.95994C0.589844 3.83994 1.44984 2.59994 2.49984 2.20994L7.96984 0.159941C8.53984 -0.0500586 9.45984 -0.0500586 10.0298 0.159941L15.4998 2.20994C16.5498 2.59994 17.4098 3.83994 17.4098 4.95994Z" fill="#b49ce4"/>
<path d="M17.4103 9.16992V13.0199C17.4103 13.8299 16.8803 14.8799 16.2303 15.3699L10.7603 19.4599C10.2803 19.8199 9.64031 19.9999 9.00031 19.9999C8.36031 19.9999 7.72031 19.8199 7.24031 19.4599L5.32031 18.0299L17.4103 9.16992Z" fill="#753fd0"/>
</svg>
