<svg width="24" height="24" viewBox="0 0 24 24" fill="none" xmlns="http://www.w3.org/2000/svg">
<path d="M12 1V3M12 21V23M23 12H21M3 12H1M19.778 4.22198L18.364 5.63599M5.63599 18.364L4.22198 19.778M19.778 19.778L18.364 18.364M5.63599 5.63599L4.22198 4.22198M18 12C18 13.1867 17.6481 14.3467 16.9888 15.3334C16.3295 16.3201 15.3925 17.0891 14.2961 17.5433C13.1998 17.9974 11.9934 18.1162 10.8295 17.8847C9.66558 17.6532 8.59647 17.0817 7.75735 16.2426C6.91824 15.4035 6.34681 14.3344 6.1153 13.1705C5.88378 12.0066 6.0026 10.8003 6.45673 9.70392C6.91085 8.60756 7.67987 7.67046 8.66656 7.01117C9.65326 6.35188 10.8133 6 12 6C13.5913 6 15.1174 6.63217 16.2426 7.75739C17.3679 8.8826 18 10.4087 18 12Z" stroke="black" stroke-width="1.5" stroke-linecap="round"/>
</svg>
