<svg width="20" height="22" viewBox="0 0 20 22" fill="none" xmlns="http://www.w3.org/2000/svg">
    <path d="M6 8.25C5.80109 8.25 5.61038 8.32907 5.46973 8.46973C5.32907 8.61038 5.25 8.80109 5.25 9C5.25 9.19891 5.32907 9.38962 5.46973 9.53027C5.61038 9.67093 5.80109 9.75 6 9.75H14C14.1989 9.75 14.3896 9.67093 14.5303 9.53027C14.6709 9.38962 14.75 9.19891 14.75 9C14.75 8.80109 14.6709 8.61038 14.5303 8.46973C14.3896 8.32907 14.1989 8.25 14 8.25H6Z" fill="#2D264B"/>
    <path d="M8 12.25C7.80109 12.25 7.61038 12.3291 7.46973 12.4697C7.32907 12.6104 7.25 12.8011 7.25 13C7.25 13.1989 7.32907 13.3896 7.46973 13.5303C7.61038 13.6709 7.80109 13.75 8 13.75H12C12.1989 13.75 12.3896 13.6709 12.5303 13.5303C12.6709 13.3896 12.75 13.1989 12.75 13C12.75 12.8011 12.6709 12.6104 12.5303 12.4697C12.3896 12.3291 12.1989 12.25 12 12.25H8Z" fill="#2D264B"/>
    <path d="M6 16.25C5.80109 16.25 5.61038 16.3291 5.46973 16.4697C5.32907 16.6104 5.25 16.8011 5.25 17C5.25 17.1989 5.32907 17.3896 5.46973 17.5303C5.61038 17.6709 5.80109 17.75 6 17.75H14C14.1989 17.75 14.3896 17.6709 14.5303 17.5303C14.6709 17.3896 14.75 17.1989 14.75 17C14.75 16.8011 14.6709 16.6104 14.5303 16.4697C14.3896 16.3291 14.1989 16.25 14 16.25H6Z" fill="#2D264B"/>
    <path fill-rule="evenodd" clip-rule="evenodd" d="M16.78 0.97998C15.9135 0.58906 14.9799 0.368486 14.03 0.330078C12.97 0.250078 11.66 0.25 10.03 0.25H9.97998C8.54998 0.25 7.37 0.250059 6.38 0.310059C5.51468 0.331565 4.65647 0.472832 3.82996 0.72998C3.39734 0.873668 2.98931 1.08288 2.62 1.3501C2.12947 1.70044 1.70032 2.12959 1.34998 2.62012C0.767587 3.48807 0.42914 4.49648 0.369995 5.54004C0.249995 6.68004 0.25 8.11995 0.25 9.94995V12.05C0.25 13.88 0.249995 15.32 0.369995 16.46C0.42914 17.5035 0.767587 18.5119 1.34998 19.3799C1.70032 19.8704 2.12947 20.2996 2.62 20.6499C3.48792 21.2323 4.49647 21.5708 5.54004 21.6299C6.68004 21.7499 8.11995 21.75 9.94995 21.75H10.05C11.88 21.75 13.32 21.7499 14.46 21.6299C15.5035 21.5708 16.5121 21.2323 17.38 20.6499C17.8705 20.2996 18.2997 19.8704 18.65 19.3799C19.2324 18.5119 19.5709 17.5035 19.63 16.46C19.75 15.32 19.75 13.88 19.75 12.05V9.94995C19.75 8.11995 19.75 6.68004 19.63 5.54004C19.5709 4.49648 19.2324 3.48807 18.65 2.62012C18.2997 2.12959 17.8705 1.70044 17.38 1.3501C17.1897 1.21163 16.9892 1.08781 16.78 0.97998ZM10 1.75C11.66 1.75 12.91 1.75008 13.91 1.83008C14.2931 1.85311 14.6741 1.90314 15.05 1.97998C14.23 2.77998 13.57 3.40011 12.99 3.86011C12.4373 4.35998 11.7604 4.70192 11.03 4.8501C10.4292 4.95603 9.8117 4.91674 9.229 4.73584C8.64631 4.55494 8.11528 4.23764 7.68005 3.81006C6.94808 3.20241 6.24709 2.55808 5.57996 1.87988C5.84996 1.84988 6.13997 1.82005 6.46997 1.80005C7.40997 1.75005 8.55 1.75 10 1.75ZM13.91 5.04004C14.8346 4.27625 15.7159 3.46172 16.55 2.6001C17.0411 2.95447 17.4412 3.42014 17.7175 3.95898C17.9939 4.49783 18.1387 5.09437 18.14 5.69995C18.25 6.74995 18.25 8.11 18.25 10V12C18.25 13.89 18.25 15.25 18.14 16.3C18.1046 17.0823 17.8631 17.8412 17.4399 18.5C17.1787 18.8614 16.8614 19.1787 16.5 19.4399C15.8412 19.8631 15.0823 20.1045 14.3 20.1399C13.25 20.2499 11.89 20.25 10 20.25C8.11 20.25 6.74995 20.2499 5.69995 20.1399C4.91774 20.1045 4.15882 19.8631 3.5 19.4399C3.13861 19.1787 2.82133 18.8614 2.56006 18.5C2.13636 17.8421 1.89792 17.0821 1.87 16.3C1.75681 14.8697 1.71676 13.4344 1.75 12V10C1.71676 8.56556 1.75681 7.13031 1.87 5.69995C1.89792 4.9179 2.13636 4.15792 2.56006 3.5C2.82133 3.13861 3.13861 2.82133 3.5 2.56006C3.62595 2.46835 3.75984 2.38804 3.90002 2.32007C4.79816 3.25717 5.74617 4.14504 6.73999 4.97998C7.50923 5.66765 8.44828 6.1373 9.45996 6.34009C10.0566 6.42993 10.6634 6.42993 11.26 6.34009C12.2425 6.14808 13.1568 5.69953 13.91 5.04004Z" fill="#2D264B"/>
    </svg>
    