<svg width="24" height="17" viewBox="0 0 24 17" fill="none" xmlns="http://www.w3.org/2000/svg">
<path d="M14.25 3.75C14.2492 4.34649 14.0119 4.9183 13.5901 5.34009C13.1683 5.76187 12.5965 5.99921 12 6V7.5C12.9945 7.49973 13.9482 7.10457 14.6514 6.40137C15.3546 5.69816 15.7497 4.74448 15.75 3.75H14.25ZM12 6C11.4035 5.99921 10.8317 5.76187 10.4099 5.34009C9.98813 4.9183 9.75079 4.34649 9.75 3.75H8.25C8.25027 4.74448 8.64543 5.69816 9.34863 6.40137C10.0518 7.10457 11.0055 7.49973 12 7.5V6ZM9.75 3.75C9.75079 3.15351 9.98813 2.5817 10.4099 2.15991C10.8317 1.73813 11.4035 1.50079 12 1.5V0C11.0055 0.000265089 10.0518 0.395429 9.34863 1.09863C8.64543 1.80184 8.25027 2.75552 8.25 3.75H9.75ZM12 1.5C12.5965 1.50079 13.1683 1.73813 13.5901 2.15991C14.0119 2.5817 14.2492 3.15351 14.25 3.75H15.75C15.7497 2.75552 15.3546 1.80184 14.6514 1.09863C13.9482 0.395429 12.9945 0.000265089 12 0V1.5ZM9 10.5H15V9H9V10.5ZM15 15H9V16.5H15V15ZM9 15C8.40351 14.9992 7.8317 14.7619 7.40991 14.3401C6.98813 13.9183 6.75079 13.3465 6.75 12.75H5.25C5.25027 13.7445 5.64543 14.6982 6.34863 15.4014C7.05184 16.1046 8.00552 16.4997 9 16.5V15ZM17.25 12.75C17.2492 13.3465 17.0119 13.9183 16.5901 14.3401C16.1683 14.7619 15.5965 14.9992 15 15V16.5C15.9945 16.4997 16.9482 16.1046 17.6514 15.4014C18.3546 14.6982 18.7497 13.7445 18.75 12.75H17.25ZM15 10.5C15.5965 10.5008 16.1683 10.7381 16.5901 11.1599C17.0119 11.5817 17.2492 12.1535 17.25 12.75H18.75C18.7497 11.7555 18.3546 10.8018 17.6514 10.0986C16.9482 9.39543 15.9945 9.00027 15 9V10.5ZM9 9C8.00552 9.00027 7.05184 9.39543 6.34863 10.0986C5.64543 10.8018 5.25027 11.7555 5.25 12.75H6.75C6.75079 12.1535 6.98813 11.5817 7.40991 11.1599C7.8317 10.7381 8.40351 10.5008 9 10.5V9Z" fill="black"/>
<path d="M7.75 6.39001C7.66744 6.26761 7.55556 6.16773 7.42456 6.09961C7.29356 6.03149 7.14762 5.99728 7 6C6.40326 6 5.83089 5.7629 5.40894 5.34094C4.98698 4.91899 4.75 4.34674 4.75 3.75C4.75 3.15326 4.98698 2.58101 5.40894 2.15906C5.83089 1.7371 6.40326 1.5 7 1.5C7.14762 1.50272 7.29356 1.46851 7.42456 1.40039C7.55556 1.33227 7.66744 1.23239 7.75 1.10999C7.76 1.09999 7.77002 1.08996 7.77002 1.07996C7.84169 0.994208 7.89018 0.891632 7.91113 0.78186C7.93209 0.672089 7.92469 0.558756 7.88965 0.452637C7.85461 0.346518 7.79314 0.251126 7.71094 0.175415C7.62874 0.0997042 7.52856 0.0462337 7.41992 0.0200195C7.27992 0.0100195 7.14 0 7 0C6.00544 0 5.05165 0.395127 4.34839 1.09839C3.64513 1.80165 3.25 2.75544 3.25 3.75C3.25 4.74456 3.64513 5.69835 4.34839 6.40161C5.05165 7.10487 6.00544 7.5 7 7.5C7.14 7.5 7.27992 7.48998 7.41992 7.47998C7.52856 7.45377 7.62874 7.4003 7.71094 7.32458C7.79314 7.24887 7.85461 7.15348 7.88965 7.04736C7.92469 6.94124 7.93209 6.82791 7.91113 6.71814C7.89018 6.60837 7.84169 6.50579 7.77002 6.42004C7.77002 6.41004 7.76 6.40001 7.75 6.39001Z" fill="black"/>
<path d="M4.70996 14.3199C4.65408 14.2255 4.57534 14.1467 4.48096 14.0908C4.38658 14.0349 4.27957 14.0037 4.16992 14H4C3.40326 14 2.83089 13.7629 2.40894 13.3409C1.98698 12.919 1.75 12.3467 1.75 11.75C1.75 11.1533 1.98698 10.581 2.40894 10.1591C2.83089 9.7371 3.40326 9.5 4 9.5H4.16992C4.27957 9.49632 4.38658 9.46511 4.48096 9.40918C4.57534 9.35325 4.65408 9.27446 4.70996 9.18005C4.77608 9.06915 4.81397 8.94367 4.82007 8.8147C4.82617 8.68572 4.80023 8.5572 4.74487 8.44055C4.68951 8.3239 4.60645 8.22271 4.50269 8.14587C4.39892 8.06904 4.27763 8.01891 4.1499 8H4C3.00544 8 2.05165 8.39513 1.34839 9.09839C0.645127 9.80165 0.25 10.7554 0.25 11.75C0.25 12.7446 0.645127 13.6983 1.34839 14.4016C2.05165 15.1049 3.00544 15.5 4 15.5H4.1499C4.27763 15.4811 4.39892 15.431 4.50269 15.3541C4.60645 15.2773 4.68951 15.1761 4.74487 15.0594C4.80023 14.9428 4.82617 14.8143 4.82007 14.6853C4.81397 14.5563 4.77608 14.4309 4.70996 14.3199Z" fill="black"/>
<path d="M16.2309 6.42004C16.1592 6.50579 16.1107 6.60837 16.0898 6.71814C16.0688 6.82791 16.0762 6.94124 16.1113 7.04736C16.1463 7.15348 16.2078 7.24887 16.29 7.32458C16.3722 7.4003 16.4724 7.45377 16.581 7.47998C16.721 7.48998 16.8609 7.5 17.0009 7.5C17.9955 7.5 18.9493 7.10487 19.6525 6.40161C20.3558 5.69835 20.7509 4.74456 20.7509 3.75C20.7509 2.75544 20.3558 1.80165 19.6525 1.09839C18.9493 0.395127 17.9955 0 17.0009 0C16.8609 0 16.721 0.0100195 16.581 0.0200195C16.4724 0.0462337 16.3722 0.0997042 16.29 0.175415C16.2078 0.251126 16.1463 0.346518 16.1113 0.452637C16.0762 0.558756 16.0688 0.672089 16.0898 0.78186C16.1107 0.891632 16.1592 0.994208 16.2309 1.07996C16.2309 1.08996 16.2409 1.09999 16.2509 1.10999C16.3335 1.23239 16.4454 1.33227 16.5763 1.40039C16.7073 1.46851 16.8533 1.50272 17.0009 1.5C17.5976 1.5 18.17 1.7371 18.592 2.15906C19.0139 2.58101 19.2509 3.15326 19.2509 3.75C19.2509 4.34674 19.0139 4.91899 18.592 5.34094C18.17 5.7629 17.5976 6 17.0009 6C16.8533 5.99728 16.7073 6.03149 16.5763 6.09961C16.4454 6.16773 16.3335 6.26761 16.2509 6.39001C16.2409 6.40001 16.2309 6.41004 16.2309 6.42004Z" fill="black"/>
<path d="M19.2907 14.3199C19.2246 14.4309 19.1867 14.5563 19.1806 14.6853C19.1745 14.8143 19.2004 14.9428 19.2558 15.0594C19.3111 15.1761 19.3942 15.2773 19.4979 15.3541C19.6017 15.431 19.723 15.4811 19.8507 15.5H20.0006C20.9952 15.5 21.949 15.1049 22.6522 14.4016C23.3555 13.6983 23.7506 12.7446 23.7506 11.75C23.7506 10.7554 23.3555 9.80165 22.6522 9.09839C21.949 8.39513 20.9952 8 20.0006 8H19.8507C19.723 8.01891 19.6017 8.06904 19.4979 8.14587C19.3942 8.22271 19.3111 8.3239 19.2558 8.44055C19.2004 8.5572 19.1745 8.68572 19.1806 8.8147C19.1867 8.94367 19.2246 9.06915 19.2907 9.18005C19.3466 9.27446 19.4253 9.35325 19.5197 9.40918C19.6141 9.46511 19.7211 9.49632 19.8307 9.5H20.0006C20.5974 9.5 21.1697 9.7371 21.5917 10.1591C22.0136 10.581 22.2506 11.1533 22.2506 11.75C22.2506 12.3467 22.0136 12.919 21.5917 13.3409C21.1697 13.7629 20.5974 14 20.0006 14H19.8307C19.7211 14.0037 19.6141 14.0349 19.5197 14.0908C19.4253 14.1467 19.3466 14.2255 19.2907 14.3199Z" fill="black"/>
</svg>
