<svg width="20" height="20" viewBox="0 0 20 20" fill="none" xmlns="http://www.w3.org/2000/svg">
<path d="M3 17.83L2.25 17.8V17.83H3ZM16.99 17.72L17.74 17.7V17.67L16.99 17.72ZM13.25 7C13.2484 7.86147 12.9055 8.68724 12.2964 9.29639C11.6872 9.90554 10.8615 10.2484 10 10.25V11.75C11.2595 11.7489 12.4671 11.2481 13.3577 10.3575C14.2482 9.46698 14.7489 8.25945 14.75 7H13.25ZM10 10.25C9.13853 10.2484 8.31276 9.90554 7.70361 9.29639C7.09446 8.68724 6.75159 7.86147 6.75 7H5.25C5.25106 8.25945 5.75177 9.46698 6.64233 10.3575C7.5329 11.2481 8.74055 11.7489 10 11.75V10.25ZM6.75 7C6.75159 6.13853 7.09446 5.31276 7.70361 4.70361C8.31276 4.09446 9.13853 3.75159 10 3.75V2.25C8.74055 2.25106 7.5329 2.75189 6.64233 3.64246C5.75177 4.53302 5.25106 5.74055 5.25 7H6.75ZM10 3.75C10.8615 3.75159 11.6872 4.09446 12.2964 4.70361C12.9055 5.31276 13.2484 6.13853 13.25 7H14.75C14.7489 5.74055 14.2482 4.53302 13.3577 3.64246C12.4671 2.75189 11.2595 2.25106 10 2.25V3.75ZM10 18.25C8.11 18.25 6.74995 18.25 5.69995 18.14C4.91775 18.1046 4.15884 17.8631 3.5 17.4399L2.62012 18.65C3.48807 19.2324 4.49648 19.5709 5.54004 19.63C6.69004 19.75 8.14 19.75 10 19.75V18.25ZM0.25 10C0.25 11.86 0.250117 13.31 0.370117 14.46C0.429213 15.5035 0.767665 16.5121 1.3501 17.38L2.56006 16.5C2.13636 15.8421 1.89805 15.0821 1.87012 14.3C1.75685 12.8697 1.71668 11.4344 1.75 10H0.25ZM18.25 10C18.25 11.89 18.2499 13.25 18.1399 14.3C18.1045 15.0823 17.8631 15.8412 17.4399 16.5L18.6499 17.38C19.2323 16.5121 19.5708 15.5035 19.6299 14.46C19.7499 13.31 19.75 11.86 19.75 10H18.25ZM10 19.75C11.86 19.75 13.31 19.75 14.46 19.63C15.5035 19.5709 16.5119 19.2324 17.3799 18.65L16.5 17.4399C15.8412 17.8631 15.0823 18.1046 14.3 18.14C13.25 18.25 11.89 18.25 10 18.25V19.75ZM10 1.75C11.4344 1.71676 12.8697 1.75681 14.3 1.87C15.0821 1.89792 15.8421 2.13636 16.5 2.56006L17.3799 1.34998C16.5119 0.767587 15.5035 0.42914 14.46 0.369995C13.31 0.249995 11.86 0.25 10 0.25V1.75ZM19.75 10C19.75 8.14 19.7499 6.69004 19.6299 5.54004C19.5708 4.49647 19.2323 3.48792 18.6499 2.62L17.4399 3.5C17.8631 4.15882 18.1045 4.91774 18.1399 5.69995C18.2499 6.74995 18.25 8.11 18.25 10H19.75ZM16.5 2.56006C16.8614 2.82133 17.1787 3.13861 17.4399 3.5L18.6499 2.62C18.2996 2.12947 17.8704 1.70032 17.3799 1.34998L16.5 2.56006ZM10 0.25C8.14 0.25 6.69004 0.249995 5.54004 0.369995C4.49648 0.42914 3.48807 0.767587 2.62012 1.34998L3.5 2.56006C4.15792 2.13636 4.9179 1.89792 5.69995 1.87C7.13031 1.75681 8.56556 1.71676 10 1.75V0.25ZM1.75 10C1.71668 8.56556 1.75685 7.1303 1.87012 5.69995C1.89805 4.9179 2.13636 4.15792 2.56006 3.5L1.3501 2.62C0.767665 3.48792 0.429213 4.49647 0.370117 5.54004C0.250117 6.69004 0.25 8.14 0.25 10H1.75ZM2.62012 1.34998C2.12959 1.70032 1.70044 2.12947 1.3501 2.62L2.56006 3.5C2.82133 3.13861 3.13861 2.82133 3.5 2.56006L2.62012 1.34998ZM7 14.75H13V13.25H7V14.75ZM7 13.25C5.77449 13.2501 4.59643 13.7234 3.71143 14.5712C2.82643 15.4189 2.30283 16.5757 2.25 17.8L3.75 17.86C3.78586 17.0224 4.14408 16.2312 4.74976 15.6516C5.35543 15.072 6.16169 14.749 7 14.75V13.25ZM3.5 17.4399C3.48535 17.4243 3.46846 17.4109 3.44995 17.4L2.55005 18.6C2.58005 18.62 2.60012 18.64 2.62012 18.65L3.5 17.4399ZM3.44995 17.4C3.10977 17.1464 2.80984 16.843 2.56006 16.5L1.3501 17.38C1.68467 17.8462 2.08942 18.2577 2.55005 18.6L3.44995 17.4ZM2.25 17.83V18H3.75V17.83H2.25ZM13 14.75C13.8226 14.7479 14.6151 15.0588 15.2168 15.6196C15.8185 16.1805 16.1844 16.9493 16.24 17.77L17.74 17.67C17.6557 16.4703 17.1198 15.3471 16.2402 14.5269C15.3606 13.7066 14.2027 13.2503 13 13.25V14.75ZM17.4399 16.5C17.1902 16.843 16.8902 17.1464 16.55 17.4L17.45 18.6C17.9083 18.2551 18.3126 17.844 18.6499 17.38L17.4399 16.5ZM16.55 17.4C16.53 17.41 16.52 17.4299 16.5 17.4399L17.3799 18.65C17.3999 18.63 17.43 18.62 17.45 18.6L16.55 17.4ZM16.24 17.75L16.25 18.03L17.75 17.97L17.74 17.7L16.24 17.75Z" fill="black"/>
</svg>
