<svg width="24" height="22" viewBox="0 0 24 22" fill="none" xmlns="http://www.w3.org/2000/svg">
<path d="M14 3.75C13.9992 4.34649 13.7619 4.9183 13.3401 5.34009C12.9183 5.76187 12.3465 5.99921 11.75 6V7.5C12.7445 7.49973 13.6982 7.10457 14.4014 6.40137C15.1046 5.69816 15.4997 4.74448 15.5 3.75H14ZM11.75 6C11.1535 5.99921 10.5817 5.76187 10.1599 5.34009C9.73813 4.9183 9.50079 4.34649 9.5 3.75H8C8.00027 4.74448 8.39543 5.69816 9.09863 6.40137C9.80184 7.10457 10.7555 7.49973 11.75 7.5V6ZM9.5 3.75C9.50079 3.15351 9.73813 2.5817 10.1599 2.15991C10.5817 1.73813 11.1535 1.50079 11.75 1.5V0C10.7555 0.000265089 9.80184 0.395429 9.09863 1.09863C8.39543 1.80184 8.00027 2.75552 8 3.75H9.5ZM11.75 1.5C12.3465 1.50079 12.9183 1.73813 13.3401 2.15991C13.7619 2.5817 13.9992 3.15351 14 3.75H15.5C15.4997 2.75552 15.1046 1.80184 14.4014 1.09863C13.6982 0.395429 12.7445 0.000265089 11.75 0V1.5ZM8.75 10.5H14.75V9H8.75V10.5ZM14.75 15H8.75V16.5H14.75V15ZM8.75 15C8.15351 14.9992 7.5817 14.7619 7.15991 14.3401C6.73813 13.9183 6.50079 13.3465 6.5 12.75H5C5.00027 13.7445 5.39543 14.6982 6.09863 15.4014C6.80184 16.1046 7.75552 16.4997 8.75 16.5V15ZM17 12.75C16.9992 13.3465 16.7619 13.9183 16.3401 14.3401C15.9183 14.7619 15.3465 14.9992 14.75 15V16.5C15.7445 16.4997 16.6982 16.1046 17.4014 15.4014C18.1046 14.6982 18.4997 13.7445 18.5 12.75H17ZM14.75 10.5C15.3465 10.5008 15.9183 10.7381 16.3401 11.1599C16.7619 11.5817 16.9992 12.1535 17 12.75H18.5C18.4997 11.7555 18.1046 10.8018 17.4014 10.0986C16.6982 9.39543 15.7445 9.00027 14.75 9V10.5ZM8.75 9C7.75552 9.00027 6.80184 9.39543 6.09863 10.0986C5.39543 10.8018 5.00027 11.7555 5 12.75H6.5C6.50079 12.1535 6.73813 11.5817 7.15991 11.1599C7.5817 10.7381 8.15351 10.5008 8.75 10.5V9Z" fill="black"/>
<path d="M7.5 6.39001C7.41744 6.2676 7.30556 6.16773 7.17456 6.09961C7.04356 6.03149 6.89762 5.99728 6.75 6C6.15326 6 5.58089 5.7629 5.15894 5.34094C4.73698 4.91899 4.5 4.34674 4.5 3.75C4.5 3.15326 4.73698 2.58101 5.15894 2.15906C5.58089 1.7371 6.15326 1.5 6.75 1.5C6.89762 1.50272 7.04356 1.46851 7.17456 1.40039C7.30556 1.33227 7.41744 1.23239 7.5 1.10999C7.51 1.09999 7.52002 1.08996 7.52002 1.07996C7.59169 0.994208 7.64018 0.891632 7.66113 0.78186C7.68209 0.672089 7.67469 0.558756 7.63965 0.452637C7.60461 0.346518 7.54314 0.251126 7.46094 0.175415C7.37874 0.0997042 7.27856 0.0462337 7.16992 0.0200195C7.02992 0.0100195 6.89 0 6.75 0C5.75544 0 4.80165 0.395127 4.09839 1.09839C3.39513 1.80165 3 2.75544 3 3.75C3 4.74456 3.39513 5.69835 4.09839 6.40161C4.80165 7.10487 5.75544 7.5 6.75 7.5C6.89 7.5 7.02992 7.48998 7.16992 7.47998C7.27856 7.45377 7.37874 7.4003 7.46094 7.32458C7.54314 7.24887 7.60461 7.15348 7.63965 7.04736C7.67469 6.94124 7.68209 6.82791 7.66113 6.71814C7.64018 6.60837 7.59169 6.50579 7.52002 6.42004C7.52002 6.41004 7.51 6.40001 7.5 6.39001Z" fill="black"/>
<path d="M4.45996 14.3199C4.40408 14.2255 4.32534 14.1467 4.23096 14.0908C4.13658 14.0349 4.02957 14.0037 3.91992 14H3.75C3.15326 14 2.58089 13.7629 2.15894 13.3409C1.73698 12.919 1.5 12.3467 1.5 11.75C1.5 11.1533 1.73698 10.581 2.15894 10.1591C2.58089 9.7371 3.15326 9.5 3.75 9.5H3.91992C4.02957 9.49632 4.13658 9.46511 4.23096 9.40918C4.32534 9.35325 4.40408 9.27446 4.45996 9.18005C4.52608 9.06915 4.56397 8.94367 4.57007 8.8147C4.57617 8.68572 4.55023 8.5572 4.49487 8.44055C4.43952 8.3239 4.35645 8.22271 4.25269 8.14587C4.14892 8.06904 4.02763 8.01891 3.8999 8H3.75C2.75544 8 1.80165 8.39513 1.09839 9.09839C0.395127 9.80165 0 10.7554 0 11.75C0 12.7446 0.395127 13.6983 1.09839 14.4016C1.80165 15.1049 2.75544 15.5 3.75 15.5H3.8999C4.02763 15.4811 4.14892 15.431 4.25269 15.3541C4.35645 15.2773 4.43952 15.1761 4.49487 15.0594C4.55023 14.9428 4.57617 14.8143 4.57007 14.6853C4.56397 14.5563 4.52608 14.4309 4.45996 14.3199Z" fill="black"/>
<path d="M15.9809 6.42004C15.9092 6.50579 15.8607 6.60837 15.8398 6.71814C15.8188 6.82791 15.8262 6.94124 15.8613 7.04736C15.8963 7.15348 15.9578 7.24887 16.04 7.32458C16.1222 7.4003 16.2224 7.45377 16.331 7.47998C16.471 7.48998 16.6109 7.5 16.7509 7.5C17.7455 7.5 18.6993 7.10487 19.4025 6.40161C20.1058 5.69835 20.5009 4.74456 20.5009 3.75C20.5009 2.75544 20.1058 1.80165 19.4025 1.09839C18.6993 0.395127 17.7455 0 16.7509 0C16.6109 0 16.471 0.0100195 16.331 0.0200195C16.2224 0.0462337 16.1222 0.0997042 16.04 0.175415C15.9578 0.251126 15.8963 0.346518 15.8613 0.452637C15.8262 0.558756 15.8188 0.672089 15.8398 0.78186C15.8607 0.891632 15.9092 0.994208 15.9809 1.07996C15.9809 1.08996 15.9909 1.09999 16.0009 1.10999C16.0835 1.23239 16.1954 1.33227 16.3263 1.40039C16.4573 1.46851 16.6033 1.50272 16.7509 1.5C17.3476 1.5 17.92 1.7371 18.342 2.15906C18.7639 2.58101 19.0009 3.15326 19.0009 3.75C19.0009 4.34674 18.7639 4.91899 18.342 5.34094C17.92 5.7629 17.3476 6 16.7509 6C16.6033 5.99728 16.4573 6.03149 16.3263 6.09961C16.1954 6.16773 16.0835 6.2676 16.0009 6.39001C15.9909 6.40001 15.9809 6.41004 15.9809 6.42004Z" fill="black"/>
<path d="M19.0407 14.3199C18.9746 14.4309 18.9367 14.5563 18.9306 14.6853C18.9245 14.8143 18.9504 14.9428 19.0058 15.0594C19.0611 15.1761 19.1442 15.2773 19.2479 15.3541C19.3517 15.431 19.473 15.4811 19.6007 15.5H19.7506C20.7452 15.5 21.699 15.1049 22.4022 14.4016C23.1055 13.6983 23.5006 12.7446 23.5006 11.75C23.5006 10.7554 23.1055 9.80165 22.4022 9.09839C21.699 8.39513 20.7452 8 19.7506 8H19.6007C19.473 8.01891 19.3517 8.06904 19.2479 8.14587C19.1442 8.22271 19.0611 8.3239 19.0058 8.44055C18.9504 8.5572 18.9245 8.68572 18.9306 8.8147C18.9367 8.94367 18.9746 9.06915 19.0407 9.18005C19.0966 9.27446 19.1753 9.35325 19.2697 9.40918C19.3641 9.46511 19.4711 9.49632 19.5807 9.5H19.7506C20.3474 9.5 20.9197 9.7371 21.3417 10.1591C21.7636 10.581 22.0006 11.1533 22.0006 11.75C22.0006 12.3467 21.7636 12.919 21.3417 13.3409C20.9197 13.7629 20.3474 14 19.7506 14H19.5807C19.4711 14.0037 19.3641 14.0349 19.2697 14.0908C19.1753 14.1467 19.0966 14.2255 19.0407 14.3199Z" fill="black"/>
</svg>
