<svg width="16" height="21" viewBox="0 0 16 21" fill="none" xmlns="http://www.w3.org/2000/svg">
<path d="M7.99997 0C7.06051 0 6.14219 0.278356 5.36106 0.800293C4.57992 1.32223 3.97106 2.06418 3.61155 2.93213C3.25203 3.80008 3.158 4.75535 3.34128 5.67676C3.52456 6.59817 3.97703 7.44459 4.64133 8.10889C5.30563 8.77319 6.15181 9.22541 7.07322 9.40869C7.99463 9.59197 8.94965 9.49819 9.8176 9.13867C10.6855 8.77916 11.4275 8.17029 11.9494 7.38916C12.4714 6.60803 12.75 5.68946 12.75 4.75C12.7489 3.49055 12.2482 2.28315 11.3576 1.39258C10.4671 0.50201 9.25943 0.00105925 7.99997 0Z" fill="white"/>
<path d="M5 11C3.74022 11 2.53216 11.5003 1.64136 12.3911C0.75056 13.2819 0.25 14.4902 0.25 15.75C0.25 17.0098 0.75056 18.2181 1.64136 19.1089C2.53216 19.9997 3.74022 20.5 5 20.5H11C12.2598 20.5 13.4678 19.9997 14.3586 19.1089C15.2494 18.2181 15.75 17.0098 15.75 15.75C15.75 14.4902 15.2494 13.2819 14.3586 12.3911C13.4678 11.5003 12.2598 11 11 11H5Z" fill="white"/>
</svg>
