<svg width="20" height="20" viewBox="0 0 19 18" fill="none" xmlns="http://www.w3.org/2000/svg">
  <path d="M14 3.75A2.253 2.253 0 0 1 11.75 6v1.5a3.75 3.75 0 0 0 3.75-3.75zM11.75 6A2.253 2.253 0 0 1 9.5 3.75H8a3.75 3.75 0 0 0 3.75 3.75zM9.5 3.75a2.253 2.253 0 0 1 2.25-2.25V0A3.75 3.75 0 0 0 8 3.75zm2.25-2.25A2.253 2.253 0 0 1 14 3.75h1.5A3.75 3.75 0 0 0 11.75 0zm-3 9h6V9h-6zm6 4.5h-6v1.5h6zm-6 0a2.253 2.253 0 0 1-2.25-2.25H5a3.75 3.75 0 0 0 3.75 3.75zM17 12.75A2.253 2.253 0 0 1 14.75 15v1.5a3.75 3.75 0 0 0 3.75-3.75zm-2.25-2.25A2.253 2.253 0 0 1 17 12.75h1.5A3.75 3.75 0 0 0 14.75 9zm-6-1.5A3.75 3.75 0 0 0 5 12.75h1.5a2.253 2.253 0 0 1 2.25-2.25zM7.5 6.39A.89.89 0 0 0 6.75 6a2.25 2.25 0 0 1 0-4.5.89.89 0 0 0 .75-.39c.01-.01.02-.02.02-.03A.657.657 0 0 0 7.17.02C7.03.01 6.89 0 6.75 0a3.75 3.75 0 0 0 0 7.5c.14 0 .28-.01.42-.02a.657.657 0 0 0 .35-1.06c0-.01-.01-.02-.02-.03m-3.04 7.93a.65.65 0 0 0-.54-.32h-.17a2.25 2.25 0 0 1 0-4.5h.17a.65.65 0 0 0 .54-.32A.786.786 0 0 0 3.9 8h-.15a3.75 3.75 0 0 0 0 7.5h.15a.786.786 0 0 0 .56-1.18" fill="#2d264b"/>
</svg>
