<svg width="21" height="21" viewBox="0 0 21 21" fill="none" xmlns="http://www.w3.org/2000/svg">
    <path fill-rule="evenodd" clip-rule="evenodd" d="M7.99997 0.25C7.06051 0.25 6.14219 0.528356 5.36106 1.05029C4.57992 1.57223 3.97106 2.31418 3.61155 3.18213C3.25203 4.05008 3.158 5.00535 3.34128 5.92676C3.52456 6.84817 3.97703 7.69459 4.64133 8.35889C5.30563 9.02319 6.15181 9.47541 7.07322 9.65869C7.99463 9.84197 8.94965 9.74819 9.8176 9.38867C10.6855 9.02916 11.4275 8.42029 11.9494 7.63916C12.4714 6.85803 12.75 5.93946 12.75 5C12.7489 3.74055 12.2482 2.53315 11.3576 1.64258C10.4671 0.75201 9.25943 0.251059 7.99997 0.25ZM4.74997 5C4.74997 4.35721 4.94047 3.7288 5.29758 3.19434C5.6547 2.65988 6.16246 2.24354 6.75632 1.99756C7.35018 1.75157 8.00357 1.6871 8.63401 1.8125C9.26444 1.9379 9.84355 2.24714 10.2981 2.70166C10.7526 3.15618 11.0621 3.73528 11.1875 4.36572C11.3129 4.99616 11.2486 5.64979 11.0027 6.24365C10.7567 6.83751 10.3401 7.34503 9.80564 7.70215C9.27118 8.05926 8.64276 8.25 7.99997 8.25C7.13851 8.24841 6.31274 7.90554 5.70359 7.29639C5.09444 6.68724 4.75156 5.86147 4.74997 5Z" fill="#2D264B"/>
    <path d="M20.5603 12.5002C20.6867 12.3508 20.7497 12.1578 20.7361 11.9626C20.7224 11.7674 20.633 11.5852 20.487 11.4548C20.3411 11.3245 20.1499 11.2564 19.9543 11.2649C19.7588 11.2733 19.5744 11.3578 19.4402 11.5002L16.0703 15.26C15.5954 15.829 15.0843 16.3671 14.5403 16.8703C14.4456 16.9889 14.3252 17.0843 14.1885 17.1501C14.0517 17.2159 13.902 17.2502 13.7502 17.2502C13.5985 17.2502 13.4488 17.2159 13.312 17.1501C13.1752 17.0843 13.0549 16.9889 12.9602 16.8703C12.4161 16.3671 11.905 15.829 11.4302 15.26L10.5603 14.2903C10.4269 14.143 10.2408 14.0539 10.0425 14.0427C9.8441 14.0315 9.64935 14.0989 9.50023 14.2302C9.42626 14.2956 9.36608 14.3748 9.32298 14.4636C9.27989 14.5524 9.25483 14.6492 9.24925 14.7478C9.24367 14.8463 9.25747 14.9452 9.29027 15.0383C9.32307 15.1314 9.37405 15.2169 9.44017 15.2903L10.3503 16.3C10.8552 16.9119 11.4068 17.4836 12.0002 18.01C12.2276 18.2442 12.4997 18.4307 12.8003 18.5578C13.1009 18.685 13.4239 18.7502 13.7502 18.7502C14.0766 18.7502 14.3996 18.685 14.7002 18.5578C15.0008 18.4307 15.2729 18.2442 15.5002 18.01C16.0937 17.4836 16.6452 16.9119 17.1501 16.3L20.5603 12.5002Z" fill="#2D264B"/>
    <path d="M5 11.25C3.74022 11.25 2.53216 11.7503 1.64136 12.6411C0.75056 13.5319 0.25 14.7402 0.25 16C0.25 17.2598 0.75056 18.4681 1.64136 19.3589C2.53216 20.2497 3.74022 20.75 5 20.75H11C11.1989 20.75 11.3896 20.6709 11.5303 20.5303C11.6709 20.3896 11.75 20.1989 11.75 20C11.75 19.8011 11.6709 19.6104 11.5303 19.4697C11.3896 19.3291 11.1989 19.25 11 19.25H5C4.13805 19.25 3.3114 18.9078 2.7019 18.2983C2.09241 17.6888 1.75 16.862 1.75 16C1.75 15.138 2.09241 14.3112 2.7019 13.7017C3.3114 13.0922 4.13805 12.75 5 12.75H11C11.1989 12.75 11.3896 12.6709 11.5303 12.5303C11.6709 12.3896 11.75 12.1989 11.75 12C11.75 11.8011 11.6709 11.6104 11.5303 11.4697C11.3896 11.3291 11.1989 11.25 11 11.25H5Z" fill="#2D264B"/>
    </svg>
    