<svg width="26" height="26" viewBox="0 0 26 26" fill="none" xmlns="http://www.w3.org/2000/svg">
<g clip-path="url(#clip0_238_1281)">
<path d="M24.2 14C19.2 14.5 15.1 17.7 13.2 22.2C12.7 23.4 12.4 24.7 12.2 26C12.1 24.7 11.7 23.4 11.2 22.2C9.2 17.7 5 14.5 0 14C5 13.5 9.1 10.3 11 5.8C11.5 4.6 11.8 3.3 12 2C12.1 3.3 12.5 4.6 13 5.8C14.9 10.2 19 13.4 24 14H24.2ZM26 4.1C24.3 3.9 22.9 2.8 22.3 1.3C22.1 0.9 22 0.5 22 0C22 0.5 21.8 0.9 21.7 1.3C21.1 2.8 19.7 3.9 18 4.1C19.7 4.3 21.1 5.4 21.7 6.9C21.9 7.3 22 7.7 22 8.2C22 7.7 22.2 7.3 22.3 6.9C22.9 5.4 24.3 4.3 26 4.1Z" fill="black"/>
</g>
<defs>
<clipPath id="clip0_238_1281">
<rect width="26" height="26" fill="white"/>
</clipPath>
</defs>
</svg>
